<svg width="14" height="20" viewBox="0 0 14 20" fill="none" xmlns="http://www.w3.org/2000/svg">
<path d="M13.276 0H0.723877C0.400283 0 0.137939 0.262344 0.137939 0.585938V19.4141C0.137939 19.6511 0.280713 19.8647 0.499658 19.9554C0.572158 19.9854 0.648291 20 0.72376 20C0.87626 20 1.0261 19.9405 1.13821 19.8284L7.00005 13.9666L12.8617 19.8284C13.0292 19.9959 13.2813 20.0461 13.5002 19.9554C13.7192 19.8647 13.8619 19.6511 13.8619 19.4141V0.585938C13.8619 0.262344 13.5996 0 13.276 0ZM7.00001 12.552C6.84462 12.552 6.6956 12.6138 6.58571 12.7237L1.30981 17.9995V1.17188H12.69V17.9994L7.41435 12.7237C7.30446 12.6138 7.15544 12.552 7.00001 12.552Z" fill="#1C1A1E"/>
</svg>
