<svg width="536" height="536" viewBox="0 0 536 536" fill="none" xmlns="http://www.w3.org/2000/svg">
<circle cx="268" cy="272" r="223" stroke="#EEEEF3" stroke-width="2"/>
<path fill-rule="evenodd" clip-rule="evenodd" d="M189.988 136.877C143.366 163.852 112 214.263 112 272C112 358.156 181.844 428 268 428C296.42 428 323.065 420.4 346.014 407.122L345.014 405.39C322.359 418.498 296.056 426 268 426C182.948 426 114 357.052 114 272C114 215.003 144.964 165.238 190.988 138.609L189.988 136.877Z" fill="#EEEEF3"/>
<path fill-rule="evenodd" clip-rule="evenodd" d="M331.638 208.359C315.351 192.073 292.852 182 268 182C218.294 182 178 222.294 178 272C178 296.852 188.073 319.351 204.359 335.638L205.773 334.224C189.849 318.299 180 296.3 180 272C180 223.399 219.399 184 268 184C292.3 184 314.299 193.849 330.224 209.773L331.638 208.359Z" fill="#EEEEF3"/>
<circle cx="268" cy="272" r="10" fill="#F07E4A"/>
<circle cx="44" cy="272" r="44" fill="#F07E4A"/>
<g clip-path="url(#clip0)">
<path d="M57.3666 281.561C57.8101 281.561 58.2227 281.333 58.4583 280.957L62.9989 273.72C63.3772 273.117 63.195 272.322 62.5921 271.943C61.9888 271.565 61.1936 271.747 60.8152 272.35L56.6536 278.983H42.0708L38.9847 268.842C39.1069 268.661 39.2174 268.471 39.3174 268.275L49.8793 275.01C50.0878 275.143 50.3285 275.212 50.5722 275.212C50.6652 275.212 50.7585 275.202 50.8508 275.181C51.1845 275.108 51.4756 274.904 51.6592 274.616L51.7988 274.397L54.2494 275.959C54.4579 276.093 54.6986 276.162 54.9423 276.162C55.0353 276.162 55.1286 276.152 55.2209 276.131C55.5546 276.057 55.8456 275.854 56.0292 275.566L58.9494 270.986C59.3321 270.385 59.1559 269.589 58.5557 269.206L56.1051 267.643L56.2448 267.424C56.6275 266.824 56.4509 266.027 55.8507 265.644L34.9292 252.305C34.6408 252.121 34.2914 252.059 33.9577 252.133C33.624 252.207 33.333 252.41 33.1494 252.698L33.0097 252.917L31.6461 252.048L31.6881 251.982C32.0708 251.382 31.8945 250.585 31.2943 250.202C30.6938 249.819 29.8968 249.996 29.5141 250.596L25.8591 256.329V256.329L25.1243 257.481C24.7412 258.082 24.9178 258.879 25.518 259.261C25.7329 259.398 25.9726 259.464 26.2099 259.464C26.6356 259.464 27.0522 259.253 27.2979 258.867L27.3398 258.802L28.7034 259.671L28.5638 259.89C28.1811 260.49 28.3577 261.287 28.9579 261.67L30.1563 262.434C29.4268 263.362 28.9901 264.531 28.9901 265.801C28.9901 266.455 29.1059 267.083 29.3177 267.665V283.603C28.0602 284.051 27.1572 285.253 27.1572 286.663V292.711C27.1572 293.423 27.7346 294 28.4463 294H59.2657C59.9777 294 60.5547 293.423 60.5547 292.711V286.663C60.5547 284.872 59.0978 283.415 57.3072 283.415H48.8817V281.561H57.3666V281.561ZM57.9766 286.663V291.422H29.7357V286.663C29.7357 286.294 30.0358 285.993 30.4051 285.993H57.3072C57.6765 285.993 57.9766 286.294 57.9766 286.663ZM31.4309 260.189L34.6301 255.171L53.3776 267.125L50.1784 272.143L39.9072 265.594C39.7978 262.678 37.3929 260.339 34.4512 260.339C33.7016 260.339 32.9865 260.492 32.3356 260.766L31.4309 260.189ZM30.26 254.222L31.6236 255.091L30.0895 257.497L28.7259 256.628L30.26 254.222ZM54.719 269.817L56.0826 270.686L54.5485 273.092L53.1849 272.223L54.719 269.817ZM31.8962 283.415V270.625C32.6589 271.031 33.5284 271.262 34.4512 271.262C35.3139 271.262 36.13 271.06 36.8561 270.703L40.7243 283.415H31.8962ZM34.4512 262.918C36.041 262.918 37.3345 264.211 37.3345 265.801C37.3345 267.391 36.041 268.684 34.4512 268.684C32.8613 268.684 31.5682 267.391 31.5682 265.801C31.5682 264.211 32.8617 262.918 34.4512 262.918ZM46.3039 283.415H43.4192L42.8549 281.561H46.3039V283.415Z" fill="#FCFCFD"/>
</g>
<circle cx="268" cy="44" r="43" fill="white" stroke="#EEEEF3" stroke-width="2"/>
<g clip-path="url(#clip1)">
<path d="M268.3 27.8959L265.805 25.4002C261.271 20.8667 253.934 20.8662 249.4 25.4002C244.866 29.9335 244.866 37.2714 249.4 41.8052C250.367 42.7729 269.316 61.722 270.194 62.5997C274.728 67.1332 282.065 67.1337 286.599 62.5997C291.133 58.0664 291.133 50.7286 286.599 46.1947L284.104 43.6989C287.619 41.7037 289.997 37.9258 289.997 33.6028C289.997 27.2064 284.793 22.0026 278.397 22.0026C274.074 22.0026 270.296 24.38 268.3 27.8959ZM278.397 45.203C279.482 45.203 280.534 45.0526 281.531 44.7723L284.776 48.0174C288.302 51.5433 288.303 57.2505 284.776 60.7769C281.251 64.3028 275.543 64.3033 272.017 60.7769L262.61 51.3697L271.247 42.732C273.219 44.2793 275.702 45.203 278.397 45.203ZM287.327 34.8917C286.699 39.2583 282.934 42.6252 278.397 42.6252C273.859 42.6252 270.094 39.2583 269.467 34.8917L287.327 34.8917ZM269.408 40.9264L260.787 49.547L251.222 39.9825C247.697 36.4566 247.696 30.7494 251.222 27.223C254.748 23.6971 260.456 23.6966 263.982 27.223L267.227 30.4681C266.947 31.4657 266.796 32.5169 266.796 33.6028C266.796 36.3777 267.776 38.9278 269.408 40.9264ZM287.327 32.3139L269.467 32.3139C270.094 27.9473 273.859 24.5804 278.397 24.5804C282.934 24.5804 286.699 27.9473 287.327 32.3139Z" fill="#F07E4A"/>
</g>
<circle cx="492" cy="272" r="43" fill="white" stroke="#EEEEF3" stroke-width="2"/>
<g clip-path="url(#clip2)">
<path d="M497.138 251.714H492V254.925H495.532V260.974C495.532 266.287 491.21 270.609 485.897 270.609C480.585 270.609 476.262 266.287 476.262 260.974V254.925H479.688V251.714H474.657C473.77 251.714 473.051 252.432 473.051 253.319V260.974C473.051 268.058 478.814 273.821 485.897 273.821C492.981 273.821 498.744 268.058 498.744 260.974V253.319C498.744 252.432 498.025 251.714 497.138 251.714Z" fill="#F07E4A"/>
<path d="M503.401 275.159V282.76C503.401 287.187 499.799 290.789 495.372 290.789C490.944 290.789 487.343 287.187 487.343 282.76V272.268H484.131V282.76C484.131 288.958 489.173 294 495.372 294C501.57 294 506.613 288.958 506.613 282.76V275.159H503.401Z" fill="#F07E4A"/>
<path d="M505.008 264.773C501.731 264.773 499.066 267.438 499.066 270.715C499.066 273.991 501.731 276.656 505.007 276.656C508.284 276.656 510.949 273.991 510.95 270.715C510.95 267.438 508.284 264.773 505.008 264.773ZM505.007 273.445C503.502 273.445 502.277 272.22 502.277 270.715C502.277 269.21 503.502 267.985 505.007 267.985C506.513 267.985 507.737 269.21 507.737 270.715C507.737 272.22 506.513 273.445 505.007 273.445Z" fill="#F07E4A"/>
<path d="M479.635 250C478.748 250 478.029 250.719 478.029 251.606V255.032C478.029 255.919 478.748 256.637 479.635 256.637C480.522 256.637 481.241 255.919 481.241 255.032V251.606C481.241 250.719 480.522 250 479.635 250Z" fill="#F07E4A"/>
<path d="M492.053 250C491.166 250 490.447 250.719 490.447 251.606V255.032C490.447 255.919 491.166 256.637 492.053 256.637C492.94 256.637 493.659 255.919 493.659 255.032V251.606C493.659 250.719 492.94 250 492.053 250Z" fill="#F07E4A"/>
</g>
<circle cx="268" cy="492" r="43" fill="white" stroke="#EEEEF3" stroke-width="2"/>
<g clip-path="url(#clip3)">
<path d="M266.71 507.534V512.711C266.71 513.423 267.287 514 267.999 514H288.71C289.422 514 289.999 513.423 289.999 512.711V507.534C289.999 506.822 289.422 506.245 288.71 506.245H267.999C267.287 506.245 266.71 506.822 266.71 507.534ZM269.288 508.823H287.421V511.422H269.288V508.823Z" fill="#F07E4A"/>
<path d="M247.137 508.813C247.893 509.569 248.886 509.947 249.879 509.947C250.872 509.947 251.865 509.569 252.621 508.813L268.185 493.249L270.023 495.087L269.104 496.006C268.6 496.509 268.6 497.325 269.104 497.829L272.765 501.49C273.017 501.742 273.347 501.868 273.677 501.868C274.006 501.868 274.336 501.742 274.588 501.49L285.572 490.506C286.075 490.003 286.075 489.187 285.572 488.683L281.91 485.022C281.407 484.519 280.591 484.519 280.087 485.022L279.168 485.941L270.008 476.781L270.927 475.862C271.169 475.62 271.304 475.292 271.304 474.95C271.304 474.608 271.169 474.28 270.927 474.039L267.266 470.377C266.762 469.874 265.946 469.874 265.443 470.377L254.459 481.361C253.956 481.865 253.956 482.681 254.459 483.184L258.12 486.845C258.362 487.087 258.69 487.223 259.032 487.223C259.374 487.223 259.701 487.087 259.943 486.845L260.862 485.926L262.701 487.764L247.137 503.328C245.625 504.84 245.625 507.301 247.137 508.813ZM268.192 474.95L259.032 484.111L257.193 482.273L266.354 473.112L268.192 474.95ZM271.838 496.917L280.999 487.757L282.837 489.595L273.677 498.756L271.838 496.917ZM271.846 493.264L262.685 484.103L268.185 478.604L277.345 487.764L271.846 493.264ZM248.96 505.151L264.524 489.587L266.362 491.426L250.798 506.99C250.291 507.496 249.466 507.496 248.96 506.99C248.453 506.483 248.453 505.658 248.96 505.151Z" fill="#F07E4A"/>
</g>
<defs>
<clipPath id="clip0">
<rect width="44" height="44" fill="white" transform="translate(22 250)"/>
</clipPath>
<clipPath id="clip1">
<rect width="44" height="44" fill="white" transform="translate(246 66) rotate(-90)"/>
</clipPath>
<clipPath id="clip2">
<rect width="44" height="44" fill="white" transform="translate(470 250)"/>
</clipPath>
<clipPath id="clip3">
<rect width="44" height="44" fill="white" transform="translate(246 470)"/>
</clipPath>
</defs>
</svg>
