<svg width="196" height="78" viewBox="0 0 196 78" fill="none" xmlns="http://www.w3.org/2000/svg">
<rect width="196" height="78" fill="#E5E5E5"/>
<g clip-path="url(#clip0)">
<path d="M157.54 30.1598C160.257 30.1598 162.46 27.9571 162.46 25.2398C162.46 22.5226 160.257 20.3198 157.54 20.3198C154.823 20.3198 152.62 22.5226 152.62 25.2398C152.62 27.9571 154.823 30.1598 157.54 30.1598Z" fill="#951B81"/>
<path d="M22.6998 32.4099H6.86982V33.8299C6.92982 38.0999 8.78982 40.8099 12.9898 40.8099C16.2698 40.8099 18.1798 40.1899 20.2798 39.1999C21.6998 38.5799 23.3098 39.3899 23.7398 40.9299C24.2298 42.4099 23.6798 43.7099 22.3198 44.3899C19.1698 45.9399 15.8298 46.4899 12.6198 46.4899C3.34982 46.4899 0.0698242 40.3099 0.0698242 33.1999V27.3899C0.0698242 20.2799 3.77983 14.0999 12.6798 14.0999C21.8298 14.0999 25.1698 20.1599 25.1698 27.2699V29.8699C25.1698 31.3599 24.0598 32.4099 22.6998 32.4099ZM18.5498 26.2299C18.5498 22.0299 16.9398 19.5499 12.7998 19.5499C8.71982 19.5499 6.92982 22.0799 6.92982 26.2299V27.1599H18.5498V26.2299Z" fill="#951B81"/>
<path d="M56.0996 46.5099C54.1796 46.5099 52.6396 44.9699 52.6396 43.0499L52.6996 26.2999C52.6996 23.0899 51.7696 20.5499 47.5696 20.5499C44.6596 20.5499 42.4996 21.8499 41.2696 23.8299V43.0499C41.2696 44.9699 39.7196 46.5099 37.8096 46.5099C35.8896 46.5099 34.3496 44.9699 34.3496 43.0499V4.77988C34.3496 2.92988 35.8996 1.37988 37.8096 1.37988C39.7296 1.37988 41.2696 2.92988 41.2696 4.77988V16.5899C43.2496 14.9799 45.8396 14.1199 49.3096 14.1199C57.0996 14.1199 59.5696 18.8799 59.5696 25.6199V43.0499C59.5596 44.9599 58.0096 46.5099 56.0996 46.5099Z" fill="#951B81"/>
<path d="M84.7199 20.9799C84.0999 20.7899 83.4799 20.6699 81.8099 20.6699C79.2799 20.6699 76.6199 21.5999 75.7499 25.2399V43.0399C75.7499 44.9599 74.1999 46.4999 72.2899 46.4999C70.4399 46.4999 68.8899 44.9599 68.8899 43.0399V23.1399C68.8899 20.8499 68.0899 20.2299 66.9699 19.4899C66.3499 19.0599 65.8599 18.3199 65.8599 17.3899C65.8599 15.4099 67.2199 14.4799 69.3199 14.4799C69.5699 14.4799 70.0599 14.4799 70.3699 14.5999C72.6599 15.1599 74.0199 16.5799 74.6999 18.1799C77.4199 14.5999 81.1899 14.0999 83.2899 14.0999C84.9599 14.0999 86.2599 14.4099 87.2499 14.9699C88.6099 15.7099 88.9799 17.3199 88.5499 18.7399C88.0599 20.2399 86.6999 21.4099 84.7199 20.9799Z" fill="#951B81"/>
<path d="M113.89 46.5099C112.47 46.5099 111.11 45.8899 110.37 45.2099C109.81 44.7799 109.44 44.2199 109.13 43.5999C106.78 45.9499 103.32 46.4999 100.54 46.4999C93.0596 46.4999 89.5996 42.6099 89.5996 37.0999V36.6699C89.5996 31.1699 93.4896 27.5199 101.41 27.5199H107.72V26.1599C107.72 21.8899 106.67 19.6099 102.16 19.6099C99.3796 19.6099 97.7096 20.2899 96.2296 21.0899C92.8296 22.8799 90.0496 18.3099 93.1996 16.2699C95.7296 14.6599 99.3196 14.1099 102.66 14.1099C111.56 14.1099 114.59 18.1899 114.59 26.9099V37.7899C114.59 40.0799 115.15 40.7599 116.26 41.4999C116.88 41.9299 117.37 42.6099 117.37 43.5999C117.36 45.6399 115.93 46.5099 113.89 46.5099ZM107.71 32.5999H102.15C97.7596 32.5999 96.3996 34.5199 96.3996 36.7999V37.2299C96.3996 39.6399 97.8796 41.4299 101.96 41.4299C105.42 41.4299 107.71 39.5799 107.71 35.7399V32.5999Z" fill="#951B81"/>
<path d="M156.44 65.1199C147.53 65.1199 138.59 62.0799 131.2 55.9199C130.74 55.5399 130.68 54.8599 131.06 54.4099C131.44 53.9499 132.12 53.8899 132.57 54.2699C147.47 66.6899 169.06 65.7099 182.79 51.9799C196.52 38.2499 197.5 16.6699 185.08 1.75994C184.7 1.29994 184.76 0.629944 185.22 0.249944C185.67 -0.130056 186.35 -0.0700558 186.73 0.389944C199.87 16.1499 198.83 38.9799 184.31 53.4999C176.6 61.2099 166.54 65.1199 156.44 65.1199Z" fill="#9D9D9C"/>
<path d="M143.47 36.9298C142.92 36.9298 142.39 36.6798 142.03 36.2098C136.72 29.1098 137.44 19.0298 143.71 12.7598C149.98 6.48983 160.06 5.76983 167.16 11.0798C167.95 11.6698 168.11 12.7898 167.52 13.5898C166.93 14.3798 165.81 14.5398 165.01 13.9498C159.33 9.69983 151.26 10.2798 146.24 15.2898C141.22 20.3098 140.65 28.3798 144.9 34.0598C145.49 34.8498 145.33 35.9698 144.54 36.5698C144.21 36.8198 143.84 36.9298 143.47 36.9298Z" fill="#9D9D9C"/>
<path d="M143.47 36.9298C142.92 36.9298 142.39 36.6798 142.03 36.2098C136.72 29.1098 137.44 19.0298 143.71 12.7598C149.98 6.48983 160.06 5.76983 167.16 11.0798C167.95 11.6698 168.11 12.7898 167.52 13.5898C166.93 14.3798 165.81 14.5398 165.01 13.9498C159.33 9.69983 151.26 10.2798 146.24 15.2898C141.22 20.3098 140.65 28.3798 144.9 34.0598C145.49 34.8498 145.33 35.9698 144.54 36.5698C144.21 36.8198 143.84 36.9298 143.47 36.9298Z" fill="#9D9D9C"/>
<path d="M156.43 53.1399C149.28 53.1399 142.15 50.4099 136.82 45.0799C127.15 35.4099 126.04 19.8598 134.23 8.90985C134.7 8.27985 135.6 8.14985 136.24 8.61985C136.87 9.08985 137 9.98985 136.53 10.6299C129.19 20.4499 130.18 34.3899 138.85 43.0499C147.52 51.7198 161.46 52.7198 171.27 45.3699C171.9 44.8998 172.8 45.0199 173.28 45.6599C173.75 46.2899 173.62 47.1898 172.99 47.6698C168.07 51.3399 162.24 53.1399 156.43 53.1399Z" fill="#9D9D9C"/>
<path d="M4.48 75.0499H1.35V75.3299C1.36 76.1799 1.73 76.7099 2.56 76.7099C3.21 76.7099 3.59 76.5899 4 76.3899C4.28 76.2699 4.6 76.4299 4.69 76.7299C4.79 77.0199 4.68 77.2799 4.41 77.4199C3.79 77.7299 3.12 77.8399 2.49 77.8399C0.65 77.8399 0 76.6199 0 75.2099V74.0599C0 72.6499 0.73 71.4299 2.5 71.4299C4.31 71.4299 4.97 72.6299 4.97 74.0399V74.5499C4.97 74.8399 4.75 75.0499 4.48 75.0499ZM3.66 73.8299C3.66 72.9999 3.34 72.5099 2.52 72.5099C1.71 72.5099 1.36 73.0099 1.36 73.8299V74.0099H3.66V73.8299Z" fill="#9D9D9C"/>
<path d="M11.2599 77.8399C11.0399 77.8399 10.7599 77.7499 10.5499 77.5799C10.4199 77.4699 10.3199 77.3199 10.2399 77.1799C9.80986 77.5999 9.20986 77.8399 8.38986 77.8399C6.89986 77.8399 6.35986 76.8999 6.35986 75.5899V72.0999C6.35986 71.7299 6.66986 71.4299 7.04986 71.4299C7.42986 71.4299 7.73986 71.7399 7.73986 72.0999L7.72986 75.4299C7.72986 76.0999 7.92986 76.5599 8.74986 76.5599C9.34986 76.5599 9.76986 76.2999 9.99986 75.8999V72.0999C9.99986 71.7299 10.3099 71.4299 10.6899 71.4299C11.0699 71.4299 11.3799 71.7399 11.3799 72.0999V76.1299C11.3799 76.5799 11.5299 76.7099 11.7499 76.8499C11.8699 76.9399 11.9699 77.0699 11.9699 77.2699C11.9499 77.6699 11.6499 77.8399 11.2599 77.8399Z" fill="#9D9D9C"/>
<path d="M16.51 72.7899C16.39 72.7499 16.27 72.7299 15.93 72.7299C15.43 72.7299 14.9 72.9099 14.73 73.6399V77.1699C14.73 77.5499 14.42 77.8599 14.04 77.8599C13.67 77.8599 13.37 77.5499 13.37 77.1699V73.2299C13.37 72.7799 13.21 72.6499 12.99 72.5099C12.87 72.4199 12.77 72.2799 12.77 72.0899C12.77 71.6999 13.04 71.5099 13.46 71.5099C13.51 71.5099 13.61 71.5099 13.67 71.5299C14.12 71.6399 14.39 71.9199 14.53 72.2399C15.07 71.5299 15.82 71.4299 16.23 71.4299C16.56 71.4299 16.82 71.4899 17.01 71.5999C17.28 71.7499 17.35 72.0699 17.27 72.3499C17.17 72.6399 16.9 72.8699 16.51 72.7899Z" fill="#9D9D9C"/>
<path d="M22.29 77.8399C22.01 77.8399 21.74 77.7199 21.59 77.5799C21.48 77.4899 21.41 77.3799 21.35 77.2599C20.88 77.7299 20.2 77.8399 19.65 77.8399C18.17 77.8399 17.48 77.0699 17.48 75.9799V75.8999C17.48 74.8099 18.25 74.0899 19.82 74.0899H21.07V73.8199C21.07 72.9799 20.86 72.5199 19.97 72.5199C19.42 72.5199 19.09 72.6599 18.79 72.8099C18.12 73.1699 17.57 72.2599 18.19 71.8599C18.69 71.5399 19.4 71.4299 20.06 71.4299C21.82 71.4299 22.42 72.2399 22.42 73.9599V76.1099C22.42 76.5599 22.53 76.6999 22.75 76.8499C22.87 76.9399 22.97 77.0699 22.97 77.2699C22.98 77.6699 22.69 77.8399 22.29 77.8399ZM21.07 75.0899H19.97C19.1 75.0899 18.83 75.4699 18.83 75.9199V76.0099C18.83 76.4899 19.12 76.8399 19.93 76.8399C20.62 76.8399 21.07 76.4699 21.07 75.7099V75.0899Z" fill="#9D9D9C"/>
<path d="M25.9499 77.8399C25.1199 77.8399 24.6399 77.7299 24.1999 77.5799C23.8899 77.4699 23.7699 77.1099 23.8699 76.8299C23.9799 76.4999 24.3199 76.3499 24.6199 76.4599C24.9999 76.6099 25.3199 76.7099 25.9699 76.7099C26.7299 76.7099 27.1199 76.3999 27.1199 75.9399C27.1199 75.2399 26.2399 75.2299 25.3899 75.0299C24.6199 74.8499 23.8699 74.4999 23.8699 73.3199C23.8699 72.0799 24.8599 71.4199 26.0699 71.4199C26.7899 71.4199 27.2499 71.5099 27.7099 71.6799C28.0299 71.7999 28.1799 72.1199 28.0799 72.4099C27.9799 72.7199 27.6599 72.8899 27.3599 72.7799C26.9099 72.6299 26.5899 72.5499 26.1399 72.5499C25.4799 72.5499 25.1599 72.8599 25.1599 73.2499C25.1599 73.8699 25.8799 73.9199 26.6899 74.0899C27.5299 74.2699 28.4199 74.5799 28.4199 75.8799C28.4099 77.2499 27.2699 77.8399 25.9499 77.8399Z" fill="#9D9D9C"/>
<path d="M30.4199 70.35C29.9899 70.35 29.6499 69.99 29.6499 69.57C29.6499 69.15 29.9899 68.8 30.4199 68.8C30.8499 68.8 31.1899 69.14 31.1899 69.57C31.1899 70 30.8499 70.35 30.4199 70.35ZM30.4199 77.84C30.0399 77.84 29.7299 77.53 29.7299 77.15V72.1C29.7299 71.73 30.0399 71.43 30.4199 71.43C30.7999 71.43 31.1099 71.74 31.1099 72.1V77.16C31.0999 77.54 30.7999 77.84 30.4199 77.84Z" fill="#9D9D9C"/>
<path d="M37.1899 77.8399C36.9099 77.8399 36.6399 77.7199 36.4899 77.5799C36.3799 77.4899 36.3099 77.3799 36.2499 77.2599C35.7799 77.7299 35.0999 77.8399 34.5499 77.8399C33.0699 77.8399 32.3799 77.0699 32.3799 75.9799V75.8999C32.3799 74.8099 33.1499 74.0899 34.7199 74.0899H35.9699V73.8199C35.9699 72.9799 35.7599 72.5199 34.8699 72.5199C34.3199 72.5199 33.9899 72.6599 33.6899 72.8099C33.0199 73.1699 32.4699 72.2599 33.0899 71.8599C33.5899 71.5399 34.2999 71.4299 34.9599 71.4299C36.7199 71.4299 37.3199 72.2399 37.3199 73.9599V76.1099C37.3199 76.5599 37.4299 76.6999 37.6499 76.8499C37.7699 76.9399 37.8699 77.0699 37.8699 77.2699C37.8699 77.6699 37.5899 77.8399 37.1899 77.8399ZM35.9599 75.0899H34.8599C33.9899 75.0899 33.7199 75.4699 33.7199 75.9199V76.0099C33.7199 76.4899 34.0099 76.8399 34.8199 76.8399C35.5099 76.8399 35.9599 76.4699 35.9599 75.7099V75.0899Z" fill="#9D9D9C"/>
<path d="M43.5001 77.8399C43.1301 77.8399 42.8301 77.5299 42.8301 77.1499V73.8299C42.8301 73.1899 42.6501 72.6899 41.8101 72.6899C41.2301 72.6899 40.8101 72.9499 40.5601 73.3399V77.1499C40.5601 77.5299 40.2501 77.8399 39.8701 77.8399C39.5001 77.8399 39.2001 77.5299 39.2001 77.1499V73.2099C39.2001 72.7599 39.0401 72.6299 38.8201 72.4899C38.7001 72.3999 38.6001 72.2599 38.6001 72.0699C38.6001 71.6699 38.8901 71.4899 39.2901 71.4899C39.5101 71.4899 39.7901 71.5799 40.0001 71.7499C40.1201 71.8499 40.2101 71.9799 40.2801 72.1099C40.7101 71.6799 41.3201 71.4199 42.1501 71.4199C43.6901 71.4199 44.1801 72.3599 44.1801 73.6999V77.1499C44.1901 77.5399 43.8801 77.8399 43.5001 77.8399Z" fill="#9D9D9C"/>
<path d="M53.85 77.8401C53.47 77.8401 53.16 77.5301 53.16 77.1501L53.17 73.8301C53.17 73.1901 52.99 72.6901 52.15 72.6901C51.57 72.6901 51.15 72.9501 50.9 73.3401V77.1501C50.9 77.5301 50.59 77.8401 50.21 77.8401C49.83 77.8401 49.52 77.5301 49.52 77.1501V69.5701C49.52 69.2001 49.83 68.9001 50.21 68.9001C50.59 68.9001 50.9 69.2101 50.9 69.5701V71.9101C51.29 71.5901 51.81 71.4201 52.49 71.4201C54.03 71.4201 54.52 72.3601 54.52 73.7001V77.1501C54.53 77.5401 54.23 77.8401 53.85 77.8401Z" fill="#9D9D9C"/>
<path d="M60.6201 77.8399C60.3401 77.8399 60.0701 77.7199 59.9201 77.5799C59.8101 77.4899 59.7401 77.3799 59.6801 77.2599C59.2101 77.7299 58.5301 77.8399 57.9801 77.8399C56.5001 77.8399 55.8101 77.0699 55.8101 75.9799V75.8999C55.8101 74.8099 56.5801 74.0899 58.1501 74.0899H59.4001V73.8199C59.4001 72.9799 59.1901 72.5199 58.3001 72.5199C57.7501 72.5199 57.4201 72.6599 57.1201 72.8099C56.4501 73.1699 55.9001 72.2599 56.5201 71.8599C57.0201 71.5399 57.7301 71.4299 58.3901 71.4299C60.1501 71.4299 60.7501 72.2399 60.7501 73.9599V76.1099C60.7501 76.5599 60.8601 76.6999 61.0801 76.8499C61.2001 76.9399 61.3001 77.0699 61.3001 77.2699C61.3001 77.6699 61.0201 77.8399 60.6201 77.8399ZM59.3901 75.0899H58.2901C57.4201 75.0899 57.1501 75.4699 57.1501 75.9199V76.0099C57.1501 76.4899 57.4401 76.8399 58.2501 76.8399C58.9401 76.8399 59.3901 76.4699 59.3901 75.7099V75.0899Z" fill="#9D9D9C"/>
<path d="M65.8699 72.7899C65.7499 72.7499 65.6299 72.7299 65.2899 72.7299C64.7899 72.7299 64.2599 72.9099 64.0899 73.6399V77.1699C64.0899 77.5499 63.7799 77.8599 63.3999 77.8599C63.0299 77.8599 62.7299 77.5499 62.7299 77.1699V73.2299C62.7299 72.7799 62.5699 72.6499 62.3499 72.5099C62.2299 72.4199 62.1299 72.2799 62.1299 72.0899C62.1299 71.6999 62.3999 71.5099 62.8199 71.5099C62.8699 71.5099 62.9699 71.5099 63.0299 71.5299C63.4799 71.6399 63.7499 71.9199 63.8899 72.2399C64.4299 71.5299 65.1799 71.4299 65.5899 71.4299C65.9199 71.4299 66.1799 71.4899 66.3699 71.5999C66.6399 71.7499 66.7099 72.0699 66.6299 72.3499C66.5299 72.6399 66.2599 72.8699 65.8699 72.7899Z" fill="#9D9D9C"/>
<path d="M75.4999 77.8399C75.1199 77.8399 74.8099 77.5299 74.8099 77.1499V73.8299C74.8099 73.1899 74.6399 72.6899 73.8199 72.6899C73.2399 72.6899 72.8399 72.9599 72.6099 73.3399C72.6199 73.4499 72.6299 73.5599 72.6299 73.6699V77.1499C72.6299 77.5299 72.3199 77.8399 71.9399 77.8399C71.5599 77.8399 71.2499 77.5299 71.2499 77.1499V73.8299C71.2499 73.1899 71.0799 72.6899 70.2699 72.6899C69.7099 72.6899 69.2999 72.9299 69.0699 73.2899V77.1499C69.0699 77.5299 68.7599 77.8399 68.3799 77.8399C68.0099 77.8399 67.7099 77.5299 67.7099 77.1499V73.2099C67.7099 72.7599 67.5499 72.6299 67.3299 72.4899C67.2099 72.3999 67.1099 72.2599 67.1099 72.0699C67.1099 71.6699 67.3999 71.4899 67.7999 71.4899C68.0199 71.4899 68.2999 71.5799 68.5099 71.7499C68.6199 71.8499 68.7099 71.9599 68.7799 72.0799C69.2099 71.6599 69.8099 71.4199 70.5999 71.4199C71.4299 71.4199 71.9499 71.6999 72.2499 72.1699C72.6799 71.6999 73.2899 71.4199 74.1499 71.4199C75.6799 71.4199 76.1599 72.3499 76.1599 73.6699V77.1499C76.1699 77.5399 75.8699 77.8399 75.4999 77.8399Z" fill="#9D9D9C"/>
<path d="M84.8401 72.7899C84.7201 72.7499 84.6001 72.7299 84.2701 72.7299C83.7701 72.7299 83.2401 72.9099 83.0701 73.6399V77.1699C83.0701 77.5499 82.7601 77.8599 82.3901 77.8599C82.0201 77.8599 81.7201 77.5499 81.7201 77.1699V73.2299C81.7201 72.7799 81.5601 72.6499 81.3401 72.5099C81.2201 72.4199 81.1201 72.2799 81.1201 72.0899C81.1201 71.6999 81.3901 71.5099 81.8101 71.5099C81.8601 71.5099 81.9601 71.5099 82.0201 71.5299C82.4701 71.6399 82.7401 71.9199 82.8801 72.2399C83.4201 71.5299 84.1701 71.4299 84.5801 71.4299C84.9101 71.4299 85.1701 71.4899 85.3601 71.5999C85.6301 71.7499 85.7001 72.0699 85.6201 72.3499C85.5001 72.6399 85.2301 72.8699 84.8401 72.7899Z" fill="#9D9D9C"/>
<path d="M90.4502 75.0499H87.3202V75.3299C87.3302 76.1799 87.7002 76.7099 88.5302 76.7099C89.1802 76.7099 89.5602 76.5899 89.9702 76.3899C90.2502 76.2699 90.5702 76.4299 90.6602 76.7299C90.7602 77.0199 90.6502 77.2799 90.3802 77.4199C89.7602 77.7299 89.0902 77.8399 88.4602 77.8399C86.6202 77.8399 85.9702 76.6199 85.9702 75.2099V74.0599C85.9702 72.6499 86.7002 71.4299 88.4702 71.4299C90.2802 71.4299 90.9402 72.6299 90.9402 74.0399V74.5499C90.9302 74.8399 90.7102 75.0499 90.4502 75.0499ZM89.6302 73.8299C89.6302 72.9999 89.3102 72.5099 88.4902 72.5099C87.6802 72.5099 87.3302 73.0099 87.3302 73.8299V74.0099H89.6302V73.8299Z" fill="#9D9D9C"/>
<path d="M96.9601 77.8401C96.7301 77.8401 96.4701 77.7501 96.2501 77.5801C96.1601 77.5101 96.0801 77.4201 96.0201 77.3201C95.5901 77.6501 94.9901 77.8301 94.4501 77.8301C92.8501 77.8301 92.1401 76.9201 92.1401 75.2801V74.2301C92.1401 72.5201 92.7001 71.4101 94.3601 71.4101C94.8401 71.4101 95.3501 71.5601 95.7301 71.8301V69.5701C95.7301 69.2001 96.0401 68.9001 96.4201 68.9001C96.8001 68.9001 97.0901 69.2101 97.0901 69.5701V76.1101C97.0901 76.5801 97.2101 76.7001 97.4201 76.8501C97.5501 76.9401 97.6401 77.0701 97.6401 77.2701C97.6301 77.6701 97.3501 77.8401 96.9601 77.8401ZM95.7201 73.0601C95.4001 72.7401 94.9701 72.5901 94.6301 72.5901C93.8101 72.5901 93.4901 73.1001 93.4901 74.0101V75.3801C93.4901 76.2501 93.8101 76.6801 94.6501 76.6801C94.9901 76.6801 95.4001 76.5301 95.7201 76.2601V73.0601Z" fill="#9D9D9C"/>
<path d="M103.79 77.8399C103.57 77.8399 103.29 77.7499 103.08 77.5799C102.94 77.4699 102.85 77.3199 102.77 77.1799C102.34 77.5999 101.74 77.8399 100.92 77.8399C99.4301 77.8399 98.8901 76.8999 98.8901 75.5899V72.0999C98.8901 71.7299 99.2001 71.4299 99.5801 71.4299C99.9601 71.4299 100.27 71.7399 100.27 72.0999L100.26 75.4299C100.26 76.0999 100.46 76.5599 101.28 76.5599C101.88 76.5599 102.3 76.2999 102.53 75.8999V72.0999C102.53 71.7299 102.84 71.4299 103.21 71.4299C103.59 71.4299 103.9 71.7399 103.9 72.0999V76.1299C103.9 76.5799 104.05 76.7099 104.27 76.8499C104.39 76.9399 104.49 77.0699 104.49 77.2699C104.47 77.6699 104.18 77.8399 103.79 77.8399Z" fill="#9D9D9C"/>
<path d="M109.59 77.4899C109.09 77.7599 108.54 77.8499 108.02 77.8499C106.27 77.8499 105.53 76.6899 105.53 75.0999V74.2599C105.53 72.7199 106.36 71.4399 108.03 71.4399C108.53 71.4399 109.13 71.5299 109.6 71.7999C109.84 71.9299 109.98 72.1999 109.84 72.5199C109.73 72.7999 109.42 72.9199 109.14 72.7899C108.85 72.6599 108.55 72.5699 108.14 72.5699C107.34 72.5699 106.89 73.1699 106.89 74.1299V75.1799C106.89 76.1499 107.28 76.7399 108.1 76.7399C108.43 76.7399 108.76 76.6799 109.14 76.5099C109.42 76.3799 109.74 76.5099 109.85 76.7999C109.98 77.1099 109.83 77.3499 109.59 77.4899Z" fill="#9D9D9C"/>
<path d="M113.91 77.77H113.51C111.77 77.77 111.25 76.67 111.25 75.03V72.63H110.97C110.65 72.63 110.41 72.39 110.41 72.07C110.41 71.75 110.65 71.51 110.97 71.51H111.25V70.46C111.25 70.08 111.56 69.77 111.92 69.77C112.3 69.77 112.61 70.08 112.61 70.46V71.51H113.64C113.96 71.51 114.22 71.75 114.22 72.07C114.22 72.39 113.96 72.63 113.64 72.63H112.61V75C112.61 76.1 112.81 76.54 113.69 76.54H113.92C114.26 76.54 114.53 76.82 114.53 77.15C114.52 77.5 114.25 77.77 113.91 77.77Z" fill="#9D9D9C"/>
<path d="M116.15 70.35C115.72 70.35 115.38 69.99 115.38 69.57C115.38 69.15 115.72 68.8 116.15 68.8C116.58 68.8 116.92 69.14 116.92 69.57C116.92 70 116.58 70.35 116.15 70.35ZM116.15 77.84C115.77 77.84 115.47 77.53 115.47 77.15V72.1C115.47 71.73 115.78 71.43 116.15 71.43C116.53 71.43 116.84 71.74 116.84 72.1V77.16C116.84 77.54 116.53 77.84 116.15 77.84Z" fill="#9D9D9C"/>
<path d="M120.86 77.8399C119.07 77.8399 118.31 76.6799 118.31 75.2699V73.9799C118.31 72.5699 119.07 71.4199 120.86 71.4199C122.64 71.4199 123.41 72.5699 123.41 73.9799V75.2699C123.41 76.6799 122.64 77.8399 120.86 77.8399ZM122.05 73.9999C122.05 73.1699 121.68 72.6699 120.86 72.6699C120.03 72.6699 119.67 73.1699 119.67 73.9999V75.2699C119.67 76.0999 120.03 76.6199 120.86 76.6199C121.68 76.6199 122.05 76.1099 122.05 75.2699V73.9999Z" fill="#9D9D9C"/>
<path d="M129.37 77.8399C129 77.8399 128.7 77.5299 128.7 77.1499V73.8299C128.7 73.1899 128.52 72.6899 127.68 72.6899C127.1 72.6899 126.68 72.9499 126.43 73.3399V77.1499C126.43 77.5299 126.12 77.8399 125.75 77.8399C125.38 77.8399 125.08 77.5299 125.08 77.1499V73.2099C125.08 72.7599 124.92 72.6299 124.7 72.4899C124.58 72.3999 124.48 72.2599 124.48 72.0699C124.48 71.6699 124.77 71.4899 125.17 71.4899C125.39 71.4899 125.67 71.5799 125.88 71.7499C126 71.8499 126.09 71.9799 126.16 72.1099C126.59 71.6799 127.2 71.4199 128.03 71.4199C129.57 71.4199 130.06 72.3599 130.06 73.6999V77.1499C130.06 77.5399 129.75 77.8399 129.37 77.8399Z" fill="#9D9D9C"/>
<path d="M139.82 77.8399C139.54 77.8399 139.27 77.7199 139.12 77.5799C139.01 77.4899 138.94 77.3799 138.88 77.2599C138.41 77.7299 137.73 77.8399 137.18 77.8399C135.7 77.8399 135.01 77.0699 135.01 75.9799V75.8999C135.01 74.8099 135.78 74.0899 137.35 74.0899H138.6V73.8199C138.6 72.9799 138.39 72.5199 137.5 72.5199C136.95 72.5199 136.62 72.6599 136.32 72.8099C135.65 73.1699 135.1 72.2599 135.72 71.8599C136.22 71.5399 136.93 71.4299 137.59 71.4299C139.35 71.4299 139.95 72.2399 139.95 73.9599V76.1099C139.95 76.5599 140.06 76.6999 140.28 76.8499C140.4 76.9399 140.5 77.0699 140.5 77.2699C140.51 77.6699 140.23 77.8399 139.82 77.8399ZM138.6 75.0899H137.5C136.63 75.0899 136.36 75.4699 136.36 75.9199V76.0099C136.36 76.4899 136.65 76.8399 137.46 76.8399C138.15 76.8399 138.6 76.4699 138.6 75.7099V75.0899Z" fill="#9D9D9C"/>
<path d="M143.48 77.8399C142.65 77.8399 142.17 77.7299 141.73 77.5799C141.42 77.4699 141.3 77.1099 141.4 76.8299C141.51 76.4999 141.85 76.3499 142.15 76.4599C142.53 76.6099 142.85 76.7099 143.5 76.7099C144.26 76.7099 144.65 76.3999 144.65 75.9399C144.65 75.2399 143.77 75.2299 142.92 75.0299C142.15 74.8499 141.4 74.4999 141.4 73.3199C141.4 72.0799 142.39 71.4199 143.6 71.4199C144.32 71.4199 144.78 71.5099 145.24 71.6799C145.56 71.7999 145.71 72.1199 145.61 72.4099C145.51 72.7199 145.19 72.8899 144.89 72.7799C144.44 72.6299 144.12 72.5499 143.67 72.5499C143.01 72.5499 142.69 72.8599 142.69 73.2499C142.69 73.8699 143.41 73.9199 144.22 74.0899C145.06 74.2699 145.95 74.5799 145.95 75.8799C145.94 77.2499 144.81 77.8399 143.48 77.8399Z" fill="#9D9D9C"/>
<path d="M148.82 77.8399C147.99 77.8399 147.51 77.7299 147.07 77.5799C146.76 77.4699 146.64 77.1099 146.74 76.8299C146.85 76.4999 147.19 76.3499 147.49 76.4599C147.87 76.6099 148.19 76.7099 148.84 76.7099C149.6 76.7099 149.99 76.3999 149.99 75.9399C149.99 75.2399 149.11 75.2299 148.26 75.0299C147.49 74.8499 146.74 74.4999 146.74 73.3199C146.74 72.0799 147.73 71.4199 148.94 71.4199C149.66 71.4199 150.12 71.5099 150.58 71.6799C150.9 71.7999 151.05 72.1199 150.95 72.4099C150.85 72.7199 150.53 72.8899 150.23 72.7799C149.78 72.6299 149.46 72.5499 149.01 72.5499C148.35 72.5499 148.03 72.8599 148.03 73.2499C148.03 73.8699 148.75 73.9199 149.56 74.0899C150.4 74.2699 151.29 74.5799 151.29 75.8799C151.28 77.2499 150.14 77.8399 148.82 77.8399Z" fill="#9D9D9C"/>
<path d="M154.96 77.8399C153.17 77.8399 152.41 76.6799 152.41 75.2699V73.9799C152.41 72.5699 153.17 71.4199 154.96 71.4199C156.74 71.4199 157.51 72.5699 157.51 73.9799V75.2699C157.51 76.6799 156.74 77.8399 154.96 77.8399ZM156.15 73.9999C156.15 73.1699 155.78 72.6699 154.96 72.6699C154.13 72.6699 153.77 73.1699 153.77 73.9999V75.2699C153.77 76.0999 154.13 76.6199 154.96 76.6199C155.78 76.6199 156.15 76.1099 156.15 75.2699V73.9999Z" fill="#9D9D9C"/>
<path d="M162.86 77.4899C162.36 77.7599 161.81 77.8499 161.29 77.8499C159.54 77.8499 158.8 76.6899 158.8 75.0999V74.2599C158.8 72.7199 159.63 71.4399 161.3 71.4399C161.8 71.4399 162.4 71.5299 162.87 71.7999C163.11 71.9299 163.25 72.1999 163.11 72.5199C163 72.7999 162.69 72.9199 162.41 72.7899C162.12 72.6599 161.82 72.5699 161.41 72.5699C160.61 72.5699 160.16 73.1699 160.16 74.1299V75.1799C160.16 76.1499 160.55 76.7399 161.37 76.7399C161.7 76.7399 162.03 76.6799 162.41 76.5099C162.69 76.3799 163.01 76.5099 163.12 76.7999C163.25 77.1099 163.1 77.3499 162.86 77.4899Z" fill="#9D9D9C"/>
<path d="M165.03 70.35C164.6 70.35 164.26 69.99 164.26 69.57C164.26 69.15 164.6 68.8 165.03 68.8C165.46 68.8 165.8 69.14 165.8 69.57C165.8 70 165.45 70.35 165.03 70.35ZM165.03 77.84C164.65 77.84 164.35 77.53 164.35 77.15V72.1C164.35 71.73 164.66 71.43 165.03 71.43C165.41 71.43 165.72 71.74 165.72 72.1V77.16C165.71 77.54 165.41 77.84 165.03 77.84Z" fill="#9D9D9C"/>
<path d="M171.8 77.8399C171.52 77.8399 171.25 77.7199 171.1 77.5799C170.99 77.4899 170.92 77.3799 170.86 77.2599C170.39 77.7299 169.71 77.8399 169.16 77.8399C167.68 77.8399 166.99 77.0699 166.99 75.9799V75.8999C166.99 74.8099 167.76 74.0899 169.33 74.0899H170.58V73.8199C170.58 72.9799 170.37 72.5199 169.48 72.5199C168.93 72.5199 168.6 72.6599 168.3 72.8099C167.63 73.1699 167.08 72.2599 167.7 71.8599C168.2 71.5399 168.91 71.4299 169.57 71.4299C171.33 71.4299 171.93 72.2399 171.93 73.9599V76.1099C171.93 76.5599 172.04 76.6999 172.26 76.8499C172.38 76.9399 172.48 77.0699 172.48 77.2699C172.48 77.6699 172.2 77.8399 171.8 77.8399ZM170.57 75.0899H169.47C168.6 75.0899 168.33 75.4699 168.33 75.9199V76.0099C168.33 76.4899 168.62 76.8399 169.43 76.8399C170.12 76.8399 170.57 76.4699 170.57 75.7099V75.0899Z" fill="#9D9D9C"/>
<path d="M176.5 77.77H176.1C174.36 77.77 173.84 76.67 173.84 75.03V72.63H173.56C173.24 72.63 173 72.39 173 72.07C173 71.75 173.24 71.51 173.56 71.51H173.84V70.46C173.84 70.08 174.15 69.77 174.51 69.77C174.89 69.77 175.2 70.08 175.2 70.46V71.51H176.23C176.55 71.51 176.81 71.75 176.81 72.07C176.81 72.39 176.55 72.63 176.23 72.63H175.2V75C175.2 76.1 175.4 76.54 176.28 76.54H176.51C176.85 76.54 177.12 76.82 177.12 77.15C177.11 77.5 176.84 77.77 176.5 77.77Z" fill="#9D9D9C"/>
<path d="M178.73 70.35C178.3 70.35 177.96 69.99 177.96 69.57C177.96 69.15 178.3 68.8 178.73 68.8C179.16 68.8 179.5 69.14 179.5 69.57C179.5 70 179.16 70.35 178.73 70.35ZM178.73 77.84C178.35 77.84 178.05 77.53 178.05 77.15V72.1C178.05 71.73 178.36 71.43 178.73 71.43C179.11 71.43 179.42 71.74 179.42 72.1V77.16C179.42 77.54 179.11 77.84 178.73 77.84Z" fill="#9D9D9C"/>
<path d="M183.45 77.8399C181.66 77.8399 180.9 76.6799 180.9 75.2699V73.9799C180.9 72.5699 181.66 71.4199 183.45 71.4199C185.23 71.4199 186 72.5699 186 73.9799V75.2699C185.99 76.6799 185.22 77.8399 183.45 77.8399ZM184.64 73.9999C184.64 73.1699 184.27 72.6699 183.45 72.6699C182.62 72.6699 182.26 73.1699 182.26 73.9999V75.2699C182.26 76.0999 182.62 76.6199 183.45 76.6199C184.27 76.6199 184.64 76.1099 184.64 75.2699V73.9999Z" fill="#9D9D9C"/>
<path d="M191.96 77.8399C191.59 77.8399 191.29 77.5299 191.29 77.1499V73.8299C191.29 73.1899 191.11 72.6899 190.27 72.6899C189.69 72.6899 189.27 72.9499 189.02 73.3399V77.1499C189.02 77.5299 188.71 77.8399 188.34 77.8399C187.97 77.8399 187.67 77.5299 187.67 77.1499V73.2099C187.67 72.7599 187.51 72.6299 187.29 72.4899C187.17 72.3999 187.07 72.2599 187.07 72.0699C187.07 71.6699 187.36 71.4899 187.76 71.4899C187.98 71.4899 188.26 71.5799 188.47 71.7499C188.59 71.8499 188.68 71.9799 188.75 72.1099C189.18 71.6799 189.79 71.4199 190.62 71.4199C192.16 71.4199 192.65 72.3599 192.65 73.6999V77.1499C192.64 77.5399 192.33 77.8399 191.96 77.8399Z" fill="#9D9D9C"/>
</g>
<defs>
<clipPath id="clip0">
<rect width="195.93" height="77.84" fill="white"/>
</clipPath>
</defs>
</svg>
