<svg width="102" height="34" viewBox="0 0 102 34" fill="none" xmlns="http://www.w3.org/2000/svg">
<path d="M82.0144 15.4982C83.429 15.4982 84.5758 14.3662 84.5758 12.9699C84.5758 11.5736 83.429 10.4417 82.0144 10.4417C80.5999 10.4417 79.4531 11.5736 79.4531 12.9699C79.4531 14.3662 80.5999 15.4982 82.0144 15.4982Z" fill="#951B81"/>
<path d="M11.8174 16.6546H3.57642V17.3844C3.60765 19.5786 4.57596 20.9712 6.76245 20.9712C8.47 20.9712 9.46434 20.6526 10.5576 20.1439C11.2968 19.8253 12.135 20.2415 12.3588 21.0329C12.6139 21.7934 12.3276 22.4614 11.6196 22.8109C9.97972 23.6074 8.24094 23.89 6.56983 23.89C1.74393 23.89 0.036377 20.7143 0.036377 17.0606V14.075C0.036377 10.4214 1.96778 7.24561 6.60107 7.24561C11.3645 7.24561 13.1033 10.3597 13.1033 14.0133V15.3494C13.1033 16.1151 12.5254 16.6546 11.8174 16.6546ZM9.65695 13.4789C9.65695 11.3206 8.8188 10.0462 6.66354 10.0462C4.53952 10.0462 3.60765 11.3463 3.60765 13.4789V13.9568H9.65695V13.4789Z" fill="#91268F"/>
<path d="M29.2052 23.9001C28.2057 23.9001 27.404 23.1088 27.404 22.1221L27.4352 13.5147C27.4352 11.8652 26.9511 10.56 24.7646 10.56C23.2497 10.56 22.1252 11.228 21.4848 12.2455V22.1221C21.4848 23.1088 20.6779 23.9001 19.6836 23.9001C18.684 23.9001 17.8823 23.1088 17.8823 22.1221V2.45616C17.8823 1.50549 18.6892 0.708984 19.6836 0.708984C20.6831 0.708984 21.4848 1.50549 21.4848 2.45616V8.52502C22.5156 7.69768 23.864 7.25575 25.6704 7.25575C29.7258 7.25575 31.0117 9.70179 31.0117 13.1653V22.1221C31.0065 23.1036 30.1996 23.9001 29.2052 23.9001Z" fill="#91268F"/>
<path d="M44.1048 10.7811C43.782 10.6834 43.4592 10.6218 42.5899 10.6218C41.2727 10.6218 39.888 11.0997 39.4351 12.9702V22.1171C39.4351 23.1038 38.6281 23.8951 37.6338 23.8951C36.6707 23.8951 35.8638 23.1038 35.8638 22.1171V11.891C35.8638 10.7143 35.4473 10.3957 34.8642 10.0154C34.5415 9.79442 34.2864 9.41416 34.2864 8.93625C34.2864 7.91878 34.9944 7.44088 36.0876 7.44088C36.2178 7.44088 36.4729 7.44088 36.6343 7.50254C37.8264 7.79031 38.5344 8.52001 38.8884 9.34221C40.3044 7.50254 42.2671 7.24561 43.3603 7.24561C44.2297 7.24561 44.9065 7.40491 45.4219 7.69268C46.1299 8.07294 46.3225 8.90028 46.0987 9.62998C45.8436 10.4008 45.1356 11.002 44.1048 10.7811Z" fill="#91268F"/>
<path d="M59.2905 23.9003C58.5512 23.9003 57.8432 23.5817 57.458 23.2322C57.1665 23.0113 56.9738 22.7235 56.8125 22.4049C55.5891 23.6125 53.7878 23.8951 52.3406 23.8951C48.4465 23.8951 46.6453 21.8962 46.6453 19.0647V18.8437C46.6453 16.0174 48.6704 14.1418 52.7935 14.1418H56.0784V13.4429C56.0784 11.2487 55.5318 10.077 53.1839 10.077C51.7367 10.077 50.8673 10.4265 50.0968 10.8376C48.3268 11.7574 46.8795 9.40901 48.5194 8.3607C49.8365 7.53336 51.7054 7.25073 53.4442 7.25073C58.0775 7.25073 59.6549 9.34734 59.6549 13.8283V19.4193C59.6549 20.5961 59.9464 20.9455 60.5243 21.3258C60.8471 21.5467 61.1022 21.8962 61.1022 22.4049C61.097 23.4532 60.3525 23.9003 59.2905 23.9003ZM56.0732 16.7523H53.1787C50.8933 16.7523 50.1853 17.7389 50.1853 18.9105V19.1315C50.1853 20.37 50.9558 21.2898 53.0798 21.2898C54.8811 21.2898 56.0732 20.3391 56.0732 18.3658V16.7523Z" fill="#91268F"/>
<path d="M81.4417 33.4632C76.8032 33.4632 72.1491 31.9011 68.3019 28.7356C68.0624 28.5403 68.0312 28.1909 68.229 27.9596C68.4268 27.7233 68.7808 27.6924 69.0151 27.8877C76.7719 34.27 88.0116 33.7664 95.1593 26.7109C102.307 19.6554 102.817 8.56601 96.3515 0.90414C96.1537 0.667757 96.1849 0.323461 96.4244 0.128189C96.6586 -0.0670833 97.0126 -0.0362508 97.2105 0.200132C104.051 8.2988 103.51 20.0306 95.9506 27.492C91.9368 31.454 86.6997 33.4632 81.4417 33.4632Z" fill="#9D9D9C"/>
<path d="M74.6896 18.9771C74.4032 18.9771 74.1273 18.8486 73.9399 18.6071C71.1756 14.9586 71.5504 9.77871 74.8145 6.55671C78.0786 3.33472 83.3262 2.96473 87.0224 5.6934C87.4337 5.99659 87.517 6.57213 87.2098 6.98323C86.9027 7.38919 86.3196 7.47141 85.9032 7.16822C82.9462 4.98426 78.745 5.2823 76.1316 7.85682C73.5182 10.4365 73.2215 14.5834 75.434 17.5022C75.7412 17.9082 75.6579 18.4837 75.2466 18.7921C75.0748 18.9205 74.8822 18.9771 74.6896 18.9771Z" fill="white"/>
<path d="M74.6896 18.9771C74.4032 18.9771 74.1273 18.8486 73.9399 18.6071C71.1756 14.9586 71.5504 9.77871 74.8145 6.55671C78.0786 3.33472 83.3262 2.96473 87.0224 5.6934C87.4337 5.99659 87.517 6.57213 87.2098 6.98323C86.9027 7.38919 86.3196 7.47141 85.9032 7.16822C82.9462 4.98426 78.745 5.2823 76.1316 7.85682C73.5182 10.4365 73.2215 14.5834 75.434 17.5022C75.7412 17.9082 75.6579 18.4837 75.2466 18.7921C75.0748 18.9205 74.8822 18.9771 74.6896 18.9771Z" fill="#9D9D9C"/>
<path d="M81.4363 27.307C77.7141 27.307 74.0023 25.9041 71.2275 23.1652C66.1934 18.196 65.6155 10.2053 69.8792 4.57835C70.1238 4.25461 70.5924 4.1878 70.9256 4.42932C71.2535 4.67084 71.3212 5.13333 71.0765 5.46221C67.2554 10.5085 67.7708 17.6719 72.2843 22.122C76.7979 26.5773 84.0549 27.0912 89.162 23.3142C89.4899 23.0727 89.9585 23.1344 90.2084 23.4632C90.453 23.787 90.3854 24.2495 90.0574 24.4961C87.4961 26.382 84.461 27.307 81.4363 27.307Z" fill="#9D9D9C"/>
</svg>
