<svg width="448" height="448" viewBox="0 0 448 448" fill="none" xmlns="http://www.w3.org/2000/svg">
<path d="M446.732 366.112C446.732 378.324 347.148 388.216 224.305 388.216C101.463 388.216 1.87846 378.314 1.87846 366.112C1.87846 353.901 101.463 344.009 224.305 344.009C347.148 344.009 446.732 353.901 446.732 366.112Z" fill="#F7E1D2"/>
<path d="M310.324 130.31H316.676H323.028L329.37 146.677L316.676 157.364L303.982 145.673L310.324 130.31Z" fill="#FECE9A"/>
<path d="M301.663 103.303C309.387 80.2148 330.232 88.2705 330.232 88.28C330.241 88.28 351.9 93.9124 344.014 117.474C344.014 117.474 339.499 131.086 334.463 135.062C327.846 140.287 318.655 141.092 313.183 139.265C307.712 137.438 300.64 131.673 298.709 123.106C297.195 116.328 301.663 103.303 301.663 103.303Z" fill="#FECE9A"/>
<path d="M301.284 106.237C301.284 106.237 300.915 102.981 298.813 104.401C296.712 105.821 294.402 113.678 299.041 115.249C299.041 115.249 300.688 108.093 301.284 106.237Z" fill="#FECE9A"/>
<path d="M300.309 109.068C300.309 109.068 300.29 105.991 298.88 107.099C297.469 108.206 297.327 110.213 298.302 111.936C298.302 111.945 299.353 106.701 300.309 109.068Z" fill="#EEB881"/>
<path d="M342.888 120.162C342.888 120.162 345.141 117.786 345.964 120.181C346.788 122.576 343.721 130.187 339.073 128.644C339.073 128.644 342.244 121.999 342.888 120.162Z" fill="#FECE9A"/>
<path d="M341.96 123.011C341.96 123.011 343.825 120.56 344.279 122.301C344.734 124.034 343.645 125.728 341.828 126.514C341.828 126.504 344.137 121.686 341.96 123.011Z" fill="#EEB881"/>
<path d="M316.373 120.796C316.08 121.677 316.97 122.756 318.352 123.22C319.743 123.684 321.106 123.352 321.4 122.481C321.693 121.601 320.803 120.522 319.412 120.058C318.03 119.585 316.667 119.916 316.373 120.796Z" fill="#EEB881"/>
<path d="M307.011 110.866C306.519 112.334 307.011 113.82 308.109 114.189C309.207 114.558 310.504 113.659 310.996 112.201C311.489 110.734 310.996 109.248 309.889 108.878C308.791 108.509 307.503 109.399 307.011 110.866Z" fill="#6C312B"/>
<path d="M330.279 118.657C329.787 120.124 330.279 121.61 331.387 121.98C332.485 122.349 333.781 121.45 334.274 119.992C334.766 118.524 334.264 117.038 333.166 116.669C332.059 116.29 330.771 117.19 330.279 118.657Z" fill="#6C312B"/>
<path d="M314.84 106.455C314.84 106.455 314.622 105.916 314.045 105.348C313.761 105.064 313.401 104.751 312.956 104.496C312.52 104.221 312.009 104.022 311.479 103.861C310.94 103.748 310.381 103.653 309.842 103.71C309.311 103.738 308.829 103.88 308.45 104.06C307.674 104.391 307.352 104.912 307.342 104.884C307.352 104.912 307.91 104.884 308.63 104.95C308.99 104.988 309.387 105.026 309.794 105.101C310.002 105.111 310.211 105.206 310.428 105.225C310.646 105.253 310.864 105.338 311.082 105.385C311.953 105.603 312.852 105.906 313.571 106.114C314.291 106.342 314.84 106.455 314.84 106.455Z" fill="#843513"/>
<path d="M331.415 112.002C331.415 112.002 331.907 111.699 332.712 111.595C333.109 111.538 333.592 111.51 334.094 111.567C334.605 111.605 335.135 111.766 335.656 111.955C336.158 112.192 336.659 112.447 337.047 112.816C337.454 113.157 337.757 113.564 337.956 113.933C338.382 114.672 338.325 115.278 338.354 115.259C338.335 115.278 337.899 114.918 337.284 114.539C336.972 114.35 336.631 114.151 336.252 113.962C336.082 113.848 335.864 113.791 335.675 113.678C335.485 113.574 335.258 113.507 335.059 113.413C334.226 113.062 333.337 112.769 332.636 112.494C331.926 112.239 331.415 112.002 331.415 112.002Z" fill="#843513"/>
<path d="M319.081 129.42C317.405 128.862 315.729 128.294 314.054 127.735C313.306 127.489 313.694 126.334 314.442 126.58C316.118 127.139 317.793 127.707 319.469 128.265C320.207 128.521 319.828 129.676 319.081 129.42Z" fill="#EEB881"/>
<path d="M342.888 120.162C342.888 120.162 344.403 107.307 339.404 104.638C334.406 101.968 314.395 100.34 310.391 97.3012C310.391 97.3012 303.632 102.801 301.275 106.247C301.275 106.247 300.461 103.738 298.066 105.177C298.066 105.177 302.761 91.7635 309.056 88.6302C309.056 88.6302 310.305 81.6915 322.403 83.8593C334.501 86.027 353.623 92.5871 345.785 119.395C345.785 119.386 344.232 118.629 342.888 120.162Z" fill="#843513"/>
<path d="M305.402 142.237C307.229 149.573 315.928 149.715 316.648 149.715C316.648 149.715 316.657 149.715 316.676 149.715C316.695 149.715 316.705 149.715 316.705 149.715C317.424 149.715 325.925 149.564 327.742 142.237L346.495 145.976L345.046 219.349H288.297L286.848 145.976L305.402 142.237Z" fill="#DEEAF9"/>
<path d="M323.085 342.911H336.148C336.148 342.911 348.785 349.972 350.158 352.822V354.09H321.996C321.996 354.09 321.182 345.751 323.085 342.911Z" fill="#58CCC1"/>
<path d="M350.158 354.09H321.977V355.879H350.158V354.09Z" fill="#37657A"/>
<path d="M309.16 342.911H296.097C296.097 342.911 283.459 349.972 282.087 352.822V354.09H310.249C310.249 354.09 311.053 345.751 309.16 342.911Z" fill="#58CCC1"/>
<path d="M310.267 354.09H282.087V355.879H310.267V354.09Z" fill="#37657A"/>
<path d="M288.306 219.349H316.619H317.329H345.16L346.854 277.499L338.382 343.905H321.343C321.343 343.905 327.789 292.304 327.079 281.835C325.536 259.23 321.296 239.038 316.97 237.978C307.049 240.411 310.703 343.905 310.703 343.905H293.664L288.306 219.349Z" fill="#24264A"/>
<path d="M323.558 231.901V180.944L333.024 143.288L348.795 145.759L351.815 231.901H323.558Z" fill="#58CCC1"/>
<path d="M310.126 231.901V180.31L300.659 143.288L284.889 145.759L281.869 231.901H310.126Z" fill="#58CCC1"/>
<path d="M417.604 146.705C417.604 146.705 388.837 165.638 381.444 165.164C374.06 164.691 348.795 145.759 348.795 145.759L349.723 172.283C349.723 172.283 375.3 189.663 383.195 187.59C391.09 185.517 417.595 169.481 417.595 169.481V146.705H417.604Z" fill="#58CCC1"/>
<path d="M422.527 145.607L427.156 169.651C428.462 175.501 425.045 180.869 419.185 182.166C413.752 183.377 407.968 180.055 406.671 174.195L400.234 142.001C400.187 141.792 400.395 141.745 400.348 141.537C400.092 141.376 400.092 141.376 400.045 141.168C398.843 135.734 402.572 129.855 408.015 128.644C421.183 125.719 429.522 112.892 426.645 99.9329C423.72 86.7654 410.779 78.8896 397.612 81.8146C389.045 83.7173 382.542 89.9839 380.099 97.7746C378.291 103.445 372.385 106.502 366.724 104.694C361.262 102.839 358.242 97.1498 360.06 91.4796C364.708 76.8449 376.976 64.908 393.068 61.3298C417.32 55.9436 441.544 71.1841 446.931 95.4365C451.522 116.13 440.948 136.681 422.527 145.607ZM433.47 199.224L434.303 202.991C435.6 208.841 432.192 214.209 426.332 215.505C420.899 216.717 415.115 213.385 413.818 207.535L412.985 203.777C411.726 198.135 415.512 192.465 420.946 191.253C426.806 189.956 432.22 193.582 433.47 199.224Z" fill="#F78B1E"/>
<path d="M416.932 146.847L421.561 170.891C422.858 176.741 419.45 182.109 413.591 183.406C408.157 184.617 402.373 181.295 401.067 175.435L394.63 143.241C394.583 143.032 394.791 142.985 394.744 142.777C394.488 142.616 394.488 142.616 394.441 142.408C393.229 136.974 396.968 131.095 402.411 129.884C415.579 126.959 423.918 114.142 421.041 101.173C418.116 88.0055 405.175 80.1296 392.008 83.0546C383.441 84.9573 376.928 91.2334 374.496 99.0146C372.687 104.685 366.781 107.742 361.12 105.934C355.658 104.079 352.638 98.3804 354.456 92.7196C359.103 78.0849 371.372 66.1481 387.464 62.5698C411.716 57.1836 435.94 72.4241 441.327 96.667C445.927 117.37 435.354 137.93 416.932 146.847ZM427.875 200.464L428.708 204.231C430.015 210.081 426.597 215.449 420.747 216.745C415.314 217.957 409.53 214.634 408.223 208.784L407.39 205.017C406.131 199.375 409.918 193.705 415.361 192.503C421.211 191.196 426.626 194.822 427.875 200.464Z" fill="#FFB361"/>
<path d="M284.889 145.759C284.889 145.759 271.608 126.495 270.424 119.102C269.241 111.709 295.027 97.7178 295.027 97.7178L288.401 84.4651C288.401 84.4651 259.529 99.8477 254.086 107.828C250.28 113.403 250.773 119.395 253.139 123.939C255.506 128.483 283.772 177.953 283.772 177.953L284.889 145.759Z" fill="#58CCC1"/>
<path d="M289.612 86.9074C289.612 86.9074 298.094 82.695 299.751 82.4583C301.407 82.2217 314.063 86.6329 313.647 86.9074C313.24 87.1914 309.974 87.9014 307.352 87.7783C304.72 87.6647 303.234 90.8548 300.309 92.2748C297.384 93.6947 294.374 96.4399 294.374 96.4399L289.612 86.9074Z" fill="#FECE9A"/>
<path d="M249.504 213.849H230.136H229.426H210.059C210.059 213.849 200.697 228.701 202.486 264.815H229.436H230.146H257.096C258.857 228.711 249.504 213.849 249.504 213.849Z" fill="#D78600"/>
<path d="M235.882 236.388H229.777H223.671L217.565 252.13L229.777 262.41L241.979 251.164L235.882 236.388Z" fill="#FECE9A"/>
<path d="M251.161 215.24C251.161 191.821 229.691 192.815 229.682 192.815C229.672 192.815 208.203 191.338 208.203 215.24C208.203 215.24 208.175 229.033 211.554 234.192C215.994 240.979 224.135 244.519 229.682 244.519C235.229 244.519 243.446 241.424 247.81 234.192C251.255 228.484 251.161 215.24 251.161 215.24Z" fill="#FECE9A"/>
<path d="M250.612 218.033C250.612 218.033 251.946 215.174 253.423 217.115C254.9 219.046 254.606 226.922 249.902 226.931C249.902 226.931 250.593 219.907 250.612 218.033Z" fill="#FECE9A"/>
<path d="M250.64 220.92C250.64 220.92 251.596 218.118 252.543 219.566C253.489 221.005 253.007 222.879 251.596 224.148C251.587 224.148 252.23 219.046 250.64 220.92Z" fill="#EEB881"/>
<path d="M208.421 218.033C208.421 218.033 207.086 215.174 205.609 217.115C204.133 219.046 204.606 226.922 209.311 226.931C209.311 226.931 208.44 219.907 208.421 218.033Z" fill="#FECE9A"/>
<path d="M208.402 220.92C208.402 220.92 207.446 218.118 206.499 219.566C205.553 221.005 206.035 222.879 207.446 224.148C207.446 224.148 206.812 219.046 208.402 220.92Z" fill="#EEB881"/>
<path d="M232.408 226.704C232.408 227.594 231.263 228.313 229.862 228.313C228.451 228.313 227.306 227.594 227.306 226.704C227.306 225.814 228.451 225.095 229.862 225.095C231.263 225.095 232.408 225.814 232.408 226.704Z" fill="#EEB881"/>
<path d="M243.976 220.513C243.976 221.999 243.067 223.211 241.96 223.211C240.843 223.211 239.934 221.999 239.934 220.513C239.934 219.027 240.843 217.815 241.96 217.815C243.067 217.815 243.976 219.017 243.976 220.513Z" fill="#6C312B"/>
<path d="M220.377 220.513C220.377 221.999 219.468 223.211 218.36 223.211C217.243 223.211 216.335 221.999 216.335 220.513C216.335 219.027 217.243 217.815 218.36 217.815C219.468 217.815 220.377 219.017 220.377 220.513Z" fill="#6C312B"/>
<path d="M238.183 214.095C238.183 214.095 238.542 213.669 239.243 213.328C239.593 213.148 240.019 212.978 240.492 212.883C240.966 212.76 241.496 212.741 242.035 212.76C242.565 212.817 243.105 212.912 243.569 213.12C244.042 213.309 244.44 213.584 244.733 213.858C245.339 214.398 245.481 214.975 245.5 214.947C245.481 214.966 244.979 214.777 244.307 214.616C243.966 214.54 243.597 214.455 243.2 214.398C243.001 214.351 242.783 214.36 242.584 214.322C242.376 214.284 242.158 214.294 241.941 214.265C241.079 214.199 240.17 214.199 239.451 214.171C238.713 214.152 238.183 214.095 238.183 214.095Z" fill="#D3670D"/>
<path d="M221.371 214.095C221.371 214.095 221.011 213.669 220.31 213.328C219.96 213.148 219.544 212.978 219.061 212.883C218.588 212.76 218.057 212.741 217.518 212.76C216.988 212.817 216.458 212.912 215.984 213.12C215.511 213.309 215.113 213.584 214.82 213.858C214.205 214.398 214.072 214.975 214.053 214.947C214.072 214.966 214.574 214.777 215.246 214.616C215.587 214.54 215.956 214.455 216.363 214.398C216.562 214.351 216.77 214.36 216.978 214.322C217.187 214.284 217.404 214.294 217.622 214.265C218.483 214.199 219.392 214.199 220.112 214.171C220.831 214.152 221.371 214.095 221.371 214.095Z" fill="#D3670D"/>
<path d="M227.306 233.747C229.01 233.747 230.704 233.747 232.408 233.747C233.166 233.747 233.166 232.573 232.408 232.573C230.704 232.573 229.01 232.573 227.306 232.573C226.549 232.573 226.549 233.747 227.306 233.747Z" fill="#EEB881"/>
<path d="M259.794 252.868L241.818 249.707C240.426 255.86 231.481 256.058 230.316 256.03V256.021C230.316 256.021 230.278 256.021 230.203 256.021C230.136 256.021 230.089 256.021 230.089 256.021V256.03C228.915 256.058 219.79 255.557 218.398 249.404L200.602 252.868L202.968 277.821C202.968 277.821 201.548 284.902 205.079 290.061C208.62 295.22 202.24 329.734 202.24 329.734H258.137C258.137 329.734 251.757 295.22 255.297 290.061C258.828 284.892 257.408 277.821 257.408 277.821L259.794 252.868Z" fill="#F48EE1"/>
<path d="M255.771 320.419H229.701H204.625C204.625 320.419 201.066 342.57 212.454 342.57C223.832 342.57 229.701 342.57 229.701 342.57C229.701 342.57 236.554 342.57 247.933 342.57C259.321 342.579 255.771 320.419 255.771 320.419Z" fill="#5495E2"/>
<path d="M245.14 357.403C245.14 357.403 244.79 370.741 251.094 371.432C257.399 372.123 258.336 357.479 258.336 357.479L245.14 357.403Z" fill="#2C2C35"/>
<path d="M244.62 359.467C244.62 359.467 227.562 283.813 249.23 281.371C270.907 278.929 259.065 360.338 259.065 360.338L244.62 359.467Z" fill="#7FAEF2"/>
<path d="M216.354 357.403C216.354 357.403 216.704 370.741 210.409 371.432C204.114 372.123 203.167 357.479 203.167 357.479L216.354 357.403Z" fill="#2C2C35"/>
<path d="M216.874 359.467C216.874 359.467 233.932 283.813 212.264 281.371C190.587 278.929 202.429 360.338 202.429 360.338L216.874 359.467Z" fill="#7FAEF2"/>
<path d="M207.2 217.815C207.2 217.815 217.272 216.187 222.147 206.266C222.147 206.266 230.979 223.192 254.152 218.241C254.152 218.241 251.322 176.098 218.625 193.042C218.635 193.042 207.285 196.876 207.2 217.815Z" fill="#D78600"/>
<path d="M200.602 252.868C200.602 252.868 187.804 259.088 167.3 270.759C167.3 270.759 163.513 278.332 168.246 283.378C168.246 283.378 197.629 280.14 202.968 277.812L200.602 252.868Z" fill="#F48EE1"/>
<path d="M178.262 296.356L184.992 322.151C186.819 328.418 183.487 334.495 177.22 336.322C171.399 338.017 164.886 334.827 163.059 328.55L153.782 294.027C153.716 293.8 153.943 293.743 153.877 293.516C153.583 293.355 153.583 293.355 153.517 293.138C151.823 287.316 155.467 280.671 161.289 278.976C175.393 274.858 183.544 260.347 179.492 246.46C175.375 232.355 160.768 224.725 146.664 228.834C137.491 231.513 130.865 238.783 128.773 247.416C127.211 253.701 121.02 257.45 114.725 255.888C108.666 254.26 104.984 248.287 106.546 242.001C110.56 225.776 123.036 211.937 140.264 206.91C166.23 199.337 193.625 214.171 201.198 240.136C207.664 262.278 197.639 285.356 178.262 296.356ZM193.957 353.835L195.13 357.867C196.957 364.134 193.625 370.202 187.359 372.038C181.537 373.733 175.024 370.533 173.197 364.266L172.023 360.234C170.263 354.194 173.974 347.767 179.786 346.072C186.052 344.236 192.186 347.786 193.957 353.835Z" fill="#F78B1E"/>
<path d="M172.27 298.107L179 323.903C180.827 330.169 177.504 336.237 171.238 338.064C165.416 339.758 158.894 336.568 157.067 330.302L147.79 295.779C147.724 295.551 147.951 295.495 147.885 295.267C147.591 295.106 147.591 295.106 147.534 294.879C145.84 289.058 149.485 282.412 155.306 280.718C169.411 276.6 177.561 262.088 173.51 248.211C169.392 234.106 154.786 226.477 140.681 230.585C131.508 233.264 124.882 240.534 122.78 249.167C121.219 255.453 115.018 259.201 108.742 257.639C102.674 256.011 99.0014 250.038 100.563 243.752C104.568 227.527 117.053 213.688 134.282 208.661C160.248 201.088 187.643 215.922 195.216 241.888C201.672 264.02 191.647 287.108 172.27 298.107ZM187.965 355.576L189.138 359.609C190.965 365.876 187.643 371.953 181.376 373.78C175.554 375.474 169.032 372.275 167.205 366.008L166.031 361.976C164.271 355.936 167.981 349.509 173.803 347.805C180.06 345.978 186.204 349.537 187.965 355.576Z" fill="#FFB361"/>
<path d="M174.267 259.135C174.267 259.135 162.122 269.945 163.135 276.979C164.148 284.012 174.191 287.713 183.695 285.801L189.233 272.719C189.233 272.719 176.813 263.291 174.267 259.135Z" fill="#F48EE1"/>
<path d="M187.955 275.71C187.955 275.71 194.43 271.356 195.689 272.71C196.948 274.063 191.817 277.632 191.817 277.632C191.817 277.632 199.854 275.199 199.191 277.632C198.529 280.065 196.683 284.694 192.073 284.675C187.463 284.656 184.405 284.069 184.405 284.069L187.955 275.71Z" fill="#FECE9A"/>
<path d="M259.586 253.275C259.586 253.275 272.725 254.714 271.75 268.355C270.775 281.996 259.567 301.174 248.614 299.13C237.652 297.094 225.924 265.714 223.264 253.275L235.949 248.381C235.949 248.381 248.747 281.276 251.047 281.882L259.586 253.275Z" fill="#F9A5ED"/>
<path d="M235.295 248.628C235.295 248.628 239.877 244.585 240.862 241.755C241.855 238.925 239.479 240.364 235.939 240.988C232.399 241.613 219.288 240.524 214.337 236.662C214.337 236.662 212.605 238.224 217.632 240.922C222.658 243.62 224.684 252.726 224.684 252.726L235.295 248.628Z" fill="#FFDEBD"/>
<path d="M58.3253 133.784H51.9735H45.6217L39.2793 150.141L51.9735 160.829L64.6676 149.138L58.3253 133.784Z" fill="#FECE9A"/>
<path d="M74.2095 111.785C74.2095 87.4375 51.8883 88.4693 51.8788 88.4693C51.8693 88.4693 29.5481 86.9358 29.5481 111.785C29.5481 111.785 29.5102 126.126 33.0316 131.493C37.6511 138.545 46.1139 142.228 51.8788 142.228C57.6437 142.228 66.1822 139.009 70.726 131.493C74.3136 125.558 74.2095 111.785 74.2095 111.785Z" fill="#FECE9A"/>
<path d="M73.6415 114.691C73.6415 114.691 75.0236 111.718 76.5571 113.735C78.1001 115.741 77.7877 123.939 72.9032 123.949C72.9032 123.949 73.6131 116.641 73.6415 114.691Z" fill="#FECE9A"/>
<path d="M73.6699 117.691C73.6699 117.691 74.6639 114.776 75.6484 116.281C76.6328 117.777 76.1311 119.727 74.6639 121.052C74.6544 121.052 75.3171 115.741 73.6699 117.691Z" fill="#EEB881"/>
<path d="M29.7753 114.691C29.7753 114.691 28.3932 111.718 26.8502 113.735C25.3073 115.741 25.7995 123.939 30.6935 123.949C30.6935 123.949 29.7942 116.641 29.7753 114.691Z" fill="#FECE9A"/>
<path d="M29.7469 117.691C29.7469 117.691 28.7529 114.776 27.7685 116.281C26.784 117.777 27.2857 119.727 28.7529 121.052C28.7624 121.052 28.0903 115.741 29.7469 117.691Z" fill="#EEB881"/>
<path d="M54.7092 123.712C54.7092 124.64 53.5165 125.387 52.0587 125.387C50.5914 125.387 49.4081 124.64 49.4081 123.712C49.4081 122.784 50.6009 122.036 52.0587 122.036C53.5259 122.036 54.7092 122.784 54.7092 123.712Z" fill="#EEB881"/>
<path d="M66.7407 117.265C66.7407 118.808 65.8036 120.067 64.6392 120.067C63.4749 120.067 62.5377 118.808 62.5377 117.265C62.5377 115.722 63.4843 114.463 64.6392 114.463C65.8036 114.463 66.7407 115.722 66.7407 117.265Z" fill="#6C312B"/>
<path d="M42.2044 117.265C42.2044 118.808 41.2672 120.067 40.1029 120.067C38.9385 120.067 38.0014 118.808 38.0014 117.265C38.0014 115.722 38.948 114.463 40.1029 114.463C41.2578 114.463 42.2044 115.722 42.2044 117.265Z" fill="#6C312B"/>
<path d="M60.7108 110.601C60.7108 110.601 61.0894 110.166 61.8088 109.797C62.1685 109.617 62.6135 109.437 63.1057 109.333C63.6074 109.21 64.1564 109.191 64.7055 109.2C65.2545 109.266 65.813 109.352 66.3053 109.579C66.7975 109.778 67.214 110.062 67.5169 110.346C68.1512 110.904 68.2932 111.501 68.3121 111.472C68.2932 111.501 67.7725 111.292 67.072 111.131C66.7218 111.056 66.3337 110.97 65.9172 110.904C65.7184 110.847 65.4912 110.866 65.2734 110.819C65.0557 110.781 64.8285 110.791 64.6014 110.762C63.7021 110.696 62.7649 110.696 62.0076 110.667C61.2693 110.658 60.7108 110.601 60.7108 110.601Z" fill="#843513"/>
<path d="M43.2362 110.601C43.2362 110.601 42.867 110.166 42.1381 109.797C41.7784 109.617 41.3335 109.437 40.8318 109.333C40.3395 109.21 39.7905 109.191 39.232 109.2C38.683 109.266 38.1245 109.352 37.6417 109.579C37.1494 109.778 36.7329 110.062 36.43 110.346C35.7958 110.904 35.6538 111.501 35.6349 111.472C35.6538 111.501 36.1744 111.292 36.8749 111.131C37.2252 111.056 37.6133 110.97 38.0298 110.904C38.2286 110.847 38.4558 110.866 38.664 110.819C38.8818 110.781 39.1089 110.791 39.3361 110.762C40.2354 110.696 41.182 110.696 41.9204 110.667C42.6682 110.658 43.2362 110.601 43.2362 110.601Z" fill="#843513"/>
<path d="M49.4081 131.029C51.1783 131.029 52.9485 131.029 54.7092 131.029C55.4949 131.029 55.4949 129.808 54.7092 129.808C52.939 129.808 51.1689 129.808 49.4081 129.808C48.6225 129.818 48.6225 131.029 49.4081 131.029Z" fill="#EEB881"/>
<path d="M29.7753 114.691C29.7753 114.691 33.0979 106.275 35.6348 103.672C35.6348 103.672 43.9745 109.607 51.1878 109.181C51.1878 109.181 46.4547 107.458 45.0347 104.732C45.0347 104.732 55.2109 108.992 63.2571 107.932C71.3034 106.872 74.1811 113.839 74.1811 113.839C74.1811 113.839 75.4401 112.674 76.5666 113.735C76.5666 113.735 80.5329 82.4867 52.0587 82.4867C22.7892 82.4867 27.2667 113.034 27.2667 113.034C27.2667 113.034 28.9423 112.93 29.7753 114.691Z" fill="#843513"/>
<path d="M63.2477 145.702C61.4207 153.038 52.7213 153.18 52.0019 153.18C52.0019 153.18 51.9924 153.18 51.9735 153.18C51.9545 153.18 51.9451 153.18 51.9451 153.18C51.2256 153.18 42.725 153.029 40.9075 145.702L22.155 149.441L23.6033 222.813H80.3531L80.8548 145.654L63.2477 145.702Z" fill="#7FBBEF"/>
<path d="M46.5115 346.385H33.4482C33.4482 346.385 20.8108 353.446 19.4382 356.296V357.564H47.6001C47.6001 357.555 48.4142 349.225 46.5115 346.385Z" fill="#7FAEF2"/>
<path d="M47.6096 357.555H19.4382V359.344H47.6096V357.555Z" fill="#37657A"/>
<path d="M58.5525 346.385H71.6158C71.6158 346.385 84.2531 353.446 85.6257 356.296V357.564H57.4638C57.4638 357.555 56.6498 349.225 58.5525 346.385Z" fill="#7FAEF2"/>
<path d="M85.6257 357.555H57.4449V359.344H85.6257V357.555Z" fill="#37657A"/>
<path d="M80.3436 222.813H52.0303H51.3203H23.4897L31.2141 347.369H48.2533C48.2533 347.369 41.75 251.448 51.68 249.016C61.6006 251.448 57 347.369 57 347.369H74.0391L80.3436 222.813Z" fill="#24264A"/>
<path d="M56.4415 307.214L57.2461 329.885C57.6058 335.423 53.7058 339.853 48.1681 340.203C43.0185 340.535 38.2002 336.663 37.8499 331.125L36.5531 300.739C36.5436 300.54 36.7329 300.531 36.7234 300.332C36.5152 300.152 36.5152 300.152 36.4963 299.953C36.1649 294.804 40.4342 289.966 45.5743 289.635C58.0507 288.84 67.5075 278.295 66.7312 266.017C65.9361 253.531 55.2204 244.481 42.7439 245.276C34.6314 245.797 27.7779 250.606 24.4364 257.384C21.9657 262.316 16.1345 264.275 11.2026 261.804C6.46956 259.324 4.51953 253.682 6.9902 248.751C13.3325 236.019 26.2633 226.846 41.5039 225.871C64.4688 224.404 84.4614 241.812 85.9286 264.777C87.1876 284.381 74.5787 301.685 56.4415 307.214ZM58.7986 357.848L59.0258 361.417C59.3855 366.955 55.4854 371.385 49.9477 371.735C44.7981 372.066 39.9798 368.195 39.6296 362.657L39.4024 359.098C39.0616 353.749 43.3308 349.101 48.4804 348.78C54.0276 348.42 58.4578 352.509 58.7986 357.848Z" fill="#F78B1E"/>
<path d="M51.1499 307.554L51.9545 330.226C52.3048 335.773 48.4142 340.194 42.8765 340.544C37.7269 340.875 32.9086 337.004 32.5583 331.466L31.2615 301.08C31.252 300.881 31.4508 300.871 31.4319 300.673C31.2236 300.483 31.2236 300.483 31.2047 300.284C30.8734 295.135 35.1331 290.298 40.2827 289.966C52.7592 289.171 62.2253 278.626 61.4302 266.348C60.635 253.872 49.9193 244.822 37.4429 245.617C29.3304 246.138 22.4769 250.947 19.1353 257.724C16.6646 262.656 10.8335 264.616 5.90159 262.145C1.1685 259.665 -0.78153 254.023 1.68914 249.091C8.03148 236.359 20.9623 227.187 36.2028 226.212C59.1678 224.744 79.1698 242.153 80.637 265.118C81.8866 284.713 69.2776 302.017 51.1499 307.554ZM53.507 358.189L53.7342 361.748C54.0939 367.295 50.2033 371.716 44.6561 372.066C39.5065 372.398 34.6882 368.526 34.3285 362.988L34.1013 359.42C33.7605 354.071 38.0392 349.423 43.1794 349.101C48.7266 348.751 53.1662 352.85 53.507 358.189Z" fill="#FFB361"/>
<path d="M34.0824 221.128C34.0824 221.128 36.9317 223.599 37.3103 227.139H34.0824C34.0824 227.139 34.0824 233.737 29.1316 234.125C24.1902 234.504 22.9312 223.211 22.9312 223.211L34.0824 221.128Z" fill="#FECE9A"/>
<path d="M21.9751 173.826C22.013 173.485 22.5053 171.677 22.5715 171.27L22.1361 149.725C20.5931 149.734 18.9933 150.283 17.5734 151.58C11.8274 156.825 9.44194 165.098 8.41959 172.254C5.69333 191.386 13.7206 210.801 23.3099 227.632L36.4016 223.211C27.6265 208.169 20.1576 191.196 21.9751 173.826Z" fill="#5EAEEA"/>
<path d="M93.1608 157.222C94.6091 164.038 96.2751 170.816 98.2441 177.499C98.4618 178.228 98.689 178.957 98.9257 179.676C101.198 171.904 102.835 163.953 104.975 156.143C105.77 153.265 106.565 150.16 108.089 147.567C110.474 143.515 116.694 143.108 120.878 142.569C126.917 141.792 126.851 151.277 120.878 152.035C122.061 151.883 118.454 152.518 118.095 152.593C116.845 152.868 115.633 153.729 115.766 153.209C115.539 153.72 115.435 154.221 115.103 155.244C113.75 159.418 112.756 163.716 111.696 167.966C109.812 175.568 108.733 185.668 104.17 192.257C101.908 195.513 97.9317 196.299 94.9499 193.392C92.2236 190.732 91.0782 186.17 89.9328 182.677C87.4811 175.18 84.7169 168.373 83.0793 160.668C81.8203 154.733 91.8923 151.259 93.1608 157.222Z" fill="#FECE9A"/>
<path d="M80.8547 145.654C80.8547 145.654 90.5954 147.302 93.1608 157.222C95.1676 164.947 98.6322 174.555 98.6322 174.555C98.6322 174.555 103.441 147.519 105.571 144.717L117.801 154.676C117.801 154.676 112.32 198.693 99.7966 199.29C87.2728 199.877 80.4288 167.938 80.4288 167.938L80.8547 145.654Z" fill="#5EAEEA"/>
</svg>
