<svg width="20" height="20" viewBox="0 0 20 20" fill="none" xmlns="http://www.w3.org/2000/svg">
<path d="M6.20539 17.8237V7.81253H3.09155V17.8237H6.20539ZM4.63173 6.47325C5.6362 6.47325 6.43977 5.6362 6.43977 4.63173C6.43977 3.66075 5.6362 2.85718 4.63173 2.85718C3.66075 2.85718 2.85718 3.66075 2.85718 4.63173C2.85718 5.6362 3.66075 6.47325 4.63173 6.47325ZM17.8572 17.8237V12.3326C17.8572 9.65405 17.2545 7.57816 14.1072 7.57816C12.6005 7.57816 11.596 8.41521 11.1608 9.1853H11.1273V7.81253H8.14736V17.8237H11.2612V12.8683C11.2612 11.5625 11.4956 10.3237 13.1027 10.3237C14.7099 10.3237 14.7433 11.7969 14.7433 12.9688V17.8237H17.8572Z" fill="#FCFCFD"/>
</svg>
