<svg width="20" height="20" viewBox="0 0 20 20" fill="none" xmlns="http://www.w3.org/2000/svg">
<g clip-path="url(#clip0)">
<path d="M19.9873 12.2583C19.9853 12.2463 19.9827 12.2346 19.9793 12.2233L19.9213 12.0179C19.6833 11.1303 18.19 10.2679 17.3023 10.5059C17.1247 10.5536 17.019 10.7363 17.0667 10.9142C17.1143 11.0919 17.2956 11.1979 17.475 11.1499C18.0063 11.0073 19.135 11.6596 19.2787 12.1953L19.3323 12.3842C19.334 12.4009 19.3333 12.4116 19.3313 12.4173C19.1776 12.4666 18.4683 12.6933 18.074 12.7989C17.6696 12.9073 17.2476 13.0463 16.808 13.2043C16.639 11.9639 16.2956 10.6776 15.786 8.7753L14.5779 4.26794C14.3079 3.26029 13.4143 2.85396 12.7053 3.04427C12.4179 3.12126 12.1586 3.29493 11.9656 3.53462L11.7203 2.61794C11.4536 1.6236 10.5366 1.21028 9.84161 1.39595C9.55126 1.4736 9.28227 1.66493 9.08528 1.93063C8.9386 1.63462 8.71161 1.39196 8.42493 1.22997C8.04594 1.01563 7.59891 0.961648 7.16661 1.07763C6.73293 1.19364 6.37262 1.46227 6.15195 1.83431C6.07594 1.96298 6.01863 2.09997 5.98094 2.24231C5.96129 2.23064 5.94129 2.21931 5.92094 2.20833C5.55828 2.01399 5.11695 1.972 4.67695 2.08966C4.24695 2.20501 3.88761 2.48067 3.66496 2.86599C3.4423 3.25165 3.38296 3.70099 3.49863 4.13064L4.41695 7.55963C4.1973 7.84029 3.72261 8.51795 3.46129 9.44096C3.41093 9.61795 3.51429 9.80229 3.69129 9.85229C3.72164 9.86096 3.75195 9.8653 3.7823 9.8653C3.92765 9.8653 4.06129 9.76928 4.10297 9.62264C4.24262 9.12764 4.45664 8.71198 4.64398 8.40631L5.655 12.18C5.70266 12.358 5.88367 12.4637 6.06332 12.4157C6.24133 12.3683 6.34664 12.1853 6.29899 12.0076L4.1423 3.95798C4.07332 3.70033 4.10863 3.43064 4.2423 3.19931C4.37562 2.96829 4.59129 2.80263 4.8493 2.73364C5.12465 2.65931 5.39297 2.68165 5.60598 2.79599C5.83164 2.917 5.99363 3.13966 6.07399 3.44064L7.88598 10.2023C7.93364 10.38 8.117 10.4863 8.29399 10.438C8.472 10.3903 8.57731 10.2076 8.52965 10.0297L6.63199 2.94599C6.55899 2.67333 6.59199 2.39931 6.72532 2.17431C6.85664 1.95298 7.07465 1.79231 7.3393 1.7213C7.60164 1.65095 7.87098 1.68263 8.09696 1.81028C8.32594 1.93962 8.49161 2.15896 8.56364 2.42829L10.4616 9.51198C10.5093 9.68964 10.6923 9.79631 10.87 9.74764C11.048 9.69999 11.1533 9.51729 11.1056 9.33932L9.46665 3.22157C9.29997 2.59989 9.68466 2.12825 10.0143 2.03958C10.3373 1.9529 10.8993 2.13126 11.0763 2.79025L12.7153 8.90791C12.7629 9.08592 12.944 9.19225 13.1236 9.14358C13.3013 9.09624 13.4069 8.91323 13.3593 8.73557L12.3256 4.87123C12.2283 4.50791 12.3119 4.24123 12.3993 4.08154C12.5073 3.88388 12.6816 3.74052 12.8776 3.68786C13.2703 3.58388 13.7719 3.83619 13.9339 4.44052L15.1422 8.94854C16.1399 12.6729 16.4903 13.9812 16.1126 17.3152L8.86524 19.2569C7.25098 16.2113 3.7773 13.4329 1.78531 12.2829C1.4303 12.0779 0.799952 11.6729 0.667647 11.5876C0.668975 11.5812 0.671631 11.5712 0.677295 11.5569L0.780303 11.3842C0.906319 11.1662 1.27097 10.9492 1.70964 10.8316C2.14831 10.7139 2.57296 10.7196 2.79066 10.8453L4.35332 11.7479C4.51297 11.8396 4.71664 11.7849 4.80867 11.6256C4.90066 11.4662 4.84633 11.2623 4.68668 11.1702L3.12402 10.2679C2.74937 10.0515 2.15601 10.0215 1.53702 10.1879C0.917686 10.3539 0.419014 10.6765 0.205693 11.0466L0.094013 11.2335C0.0876849 11.2439 0.0820208 11.2546 0.0770208 11.2655C-0.0689951 11.5842 -0.0043075 11.8995 0.250341 12.1089C0.25999 12.1169 0.270341 12.1245 0.281006 12.1312C0.312021 12.1512 1.04136 12.6229 1.45202 12.8602C3.42304 13.9978 6.89071 16.7765 8.38336 19.7775C8.43536 19.9022 8.55801 19.9822 8.69137 19.9822C8.71805 19.9822 8.74536 19.9789 8.77239 19.9722C8.77571 19.9712 8.77872 19.9706 8.78173 19.9699L16.5037 17.9005C16.6354 17.8655 16.7324 17.7536 16.7484 17.6182C16.9321 16.0829 16.9737 14.9625 16.8831 13.8849C17.3624 13.7082 17.8144 13.5585 18.2464 13.4429C18.7047 13.3199 19.5314 13.0532 19.5664 13.0419C19.5784 13.0379 19.5901 13.0332 19.6017 13.0282C19.9017 12.8919 20.046 12.6039 19.9873 12.2583Z" fill="#1C1A1E"/>
<path d="M4.03564 1.16707C4.09396 1.28407 4.21165 1.35141 4.33396 1.35141C4.38396 1.35141 4.43497 1.34008 4.48263 1.31641C4.64732 1.23407 4.71431 1.03375 4.63197 0.869065L4.29829 0.202384C4.2163 0.0377355 4.0163 -0.0296084 3.8513 0.0533996C3.68665 0.135743 3.61962 0.335744 3.70196 0.500393L4.03564 1.16707Z" fill="#1C1A1E"/>
<path d="M11.7185 1.00388C12.0475 0.649235 12.5095 0.621892 12.7765 0.775564C13.0719 0.946228 13.3212 1.50092 13.0002 2.05822L12.9995 2.05924C12.9076 2.21857 12.9622 2.42225 13.1215 2.51455C13.2812 2.60654 13.4849 2.55154 13.5769 2.39256C13.5772 2.39221 13.5776 2.39154 13.5776 2.39123L14.0769 1.52658C14.3619 1.0326 14.9492 0.875252 15.4429 1.16025C15.9446 1.45025 16.0986 2.0249 15.8092 2.52658L15.6499 2.8026L15.1389 3.57428C15.0372 3.7276 15.0792 3.93459 15.2329 4.03627C15.2896 4.07362 15.3535 4.09163 15.4165 4.09163C15.5246 4.09163 15.6309 4.03897 15.6949 3.94229L16.2099 3.16463C16.2119 3.16162 16.2119 3.15795 16.2139 3.15498C16.2155 3.15197 16.2185 3.15065 16.2205 3.14733V3.14697L16.2209 3.14662C16.5896 2.50994 17.1676 2.54096 17.5859 2.78295C17.8169 2.91627 17.9826 3.13162 18.0516 3.38963C18.1209 3.64764 18.0852 3.91698 17.9519 4.1483L16.0726 7.40331C15.9806 7.56265 16.0356 7.76663 16.1946 7.85862C16.2472 7.88898 16.3046 7.90327 16.3612 7.90327C16.4762 7.90327 16.5882 7.84362 16.6502 7.73659L18.5289 4.48159C18.7516 4.09623 18.8109 3.64725 18.6956 3.21725C18.5802 2.7869 18.3046 2.4276 17.9192 2.20557C17.4859 1.9549 17.0303 1.89756 16.6223 2.01424C16.6259 1.44357 16.3262 0.900916 15.7762 0.582907C15.0696 0.17525 14.2182 0.327594 13.7022 0.911228C13.5806 0.602907 13.3703 0.348571 13.1096 0.198219C12.6069 -0.0917816 11.7996 -0.0637737 11.2299 0.550876C11.1046 0.685876 11.1126 0.896541 11.2476 1.02189C11.3825 1.14685 11.5929 1.13888 11.7185 1.00388Z" fill="#1C1A1E"/>
<path d="M2.09816 2.5874C2.16316 2.6524 2.24851 2.68505 2.33382 2.68505C2.41917 2.68505 2.50449 2.6524 2.56949 2.5874C2.69984 2.45705 2.69984 2.24638 2.56949 2.11607L1.90281 1.44939C1.77245 1.31904 1.56179 1.31904 1.43148 1.44939C1.30116 1.57974 1.30116 1.7904 1.43148 1.92072L2.09816 2.5874Z" fill="#1C1A1E"/>
<path d="M1.33332 4.68446H2C2.18399 4.68446 2.33332 4.53513 2.33332 4.35114C2.33332 4.16716 2.18399 4.01782 2 4.01782H1.33332C1.14934 4.01782 1 4.16716 1 4.35114C1 4.53513 1.14934 4.68446 1.33332 4.68446Z" fill="#1C1A1E"/>
<path d="M1.33365 7.01866C1.3683 7.01866 1.40401 7.01331 1.43901 7.00167L2.43901 6.66835C2.61366 6.61002 2.70835 6.421 2.65003 6.24666C2.59171 6.07202 2.40335 5.97733 2.22835 6.03565L1.22834 6.36897C1.05369 6.42729 0.959356 6.61631 1.01732 6.79065C1.064 6.93034 1.19401 7.01866 1.33365 7.01866Z" fill="#1C1A1E"/>
</g>
<defs>
<clipPath id="clip0">
<rect width="20" height="20" fill="white"/>
</clipPath>
</defs>
</svg>
