<svg width="16" height="16" viewBox="0 0 16 16" fill="none" xmlns="http://www.w3.org/2000/svg">
<path d="M9.76484 4.20248L9.81326 4.14641C9.99079 3.96892 10.2686 3.95281 10.4643 4.09807L10.5204 4.14648L13.8514 7.47825C14.0288 7.65568 14.045 7.93327 13.9 8.129L13.8516 8.18508L10.5206 11.5207C10.3254 11.7161 10.0089 11.7163 9.81347 11.5212C9.63583 11.3438 9.61951 11.066 9.76461 10.8702L9.81298 10.8141L12.2869 8.336L2.50024 8.33663C2.24711 8.33663 2.03792 8.14853 2.00481 7.90448L2.00024 7.83663C2.00024 7.5835 2.18835 7.3743 2.4324 7.3412L2.50024 7.33663L12.2956 7.336L9.81319 4.85352C9.63569 4.67599 9.61959 4.39821 9.76484 4.20248L9.81326 4.14641L9.76484 4.20248Z" fill="#FCFCFD"/>
</svg>
